<svg width="current" height="current" viewBox="0 0 52 55" fill="none" xmlns="http://www.w3.org/2000/svg">
<path d="M34.6668 26.3541H27.0835V18.3333C27.0835 17.7005 26.5984 17.1875 26.0002 17.1875C25.4019 17.1875 24.9168 17.7005 24.9168 18.3333V26.3541H17.3335C16.7352 26.3541 16.2502 26.8672 16.2502 27.5C16.2502 28.1328 16.7352 28.6458 17.3335 28.6458H24.9168V36.6679C24.9172 37.3004 25.4022 37.8129 26.0002 37.8125C26.598 37.8121 27.0839 37.2991 27.0835 36.6666V28.6458H34.6668C35.2651 28.6458 35.7502 28.1328 35.7502 27.5C35.7502 26.8672 35.2651 26.3541 34.6668 26.3541ZM26.0002 4.58331C14.034 4.58331 4.3335 14.8435 4.3335 27.5C4.3335 40.1565 14.034 50.4166 26.0002 50.4166C37.9606 50.4022 47.6532 40.1504 47.6668 27.5C47.6668 14.8435 37.9663 4.58331 26.0002 4.58331ZM26.0002 48.125C15.2306 48.125 6.50016 38.8909 6.50016 27.5C6.50016 16.1091 15.2306 6.87498 26.0002 6.87498C36.7647 6.88785 45.488 16.1144 45.5002 27.5C45.5002 38.8909 36.7698 48.125 26.0002 48.125Z" fill="current"/>
</svg>
