<svg width="current" height="current" viewBox="0 0 23 25" fill="none" xmlns="http://www.w3.org/2000/svg">
<path d="M18.8937 13.2111C18.882 11.1627 19.8523 9.6167 21.8162 8.4781C20.7173 6.97672 19.0574 6.15067 16.8656 5.98881C14.7906 5.83253 12.5228 7.14416 11.6929 7.14416C10.8162 7.14416 8.80553 6.04463 7.22742 6.04463C3.96599 6.09486 0.5 8.52834 0.5 13.479C0.5 14.9413 0.780553 16.452 1.34166 18.0111C2.0898 20.0595 4.79012 25.0827 7.60733 24.999C9.08023 24.9655 10.1206 23.9999 12.0377 23.9999C13.8964 23.9999 14.8608 24.999 16.5032 24.999C19.3438 24.9599 21.7869 20.3943 22.5 18.3404C18.6892 16.6269 18.8937 13.3172 18.8937 13.2111ZM15.5855 4.04649C17.1812 2.23813 17.0351 0.591625 16.9883 0C15.5797 0.0781392 13.949 0.915345 13.0197 1.9479C11.9968 3.05301 11.3948 4.42045 11.5234 5.96091C13.0489 6.07253 14.44 5.32463 15.5855 4.04649Z" fill="white"/>
</svg>
