<svg width="current" height="current" viewBox="0 0 55 54" fill="current" xmlns="http://www.w3.org/2000/svg">
<path d="M40.3365 16.9166L40.3365 16.9166C40.8474 16.425 41.6662 16.433 42.167 16.9347C42.6621 17.4306 42.6621 18.2254 42.167 18.7214L42.1659 18.7224L23.4657 37.0826L40.3365 16.9166ZM40.3365 16.9166L40.3355 16.9177M40.3365 16.9166L40.3355 16.9177M40.3355 16.9177L22.5503 34.3794L14.6659 26.6384L14.6659 26.6384M40.3355 16.9177L14.6659 26.6384M14.6659 26.6384L14.6648 26.6373M14.6659 26.6384L14.6648 26.6373M14.6648 26.6373C14.1613 26.1527 13.3566 26.1527 12.853 26.6373C12.3407 27.1303 12.3324 27.9389 12.8345 28.4421L12.8356 28.4431M14.6648 26.6373L12.8356 28.4431M12.8356 28.4431L21.6351 37.0826L12.8356 28.4431Z" fill="current" stroke="current" stroke-width="0.3"/>
</svg>
