<svg width="current" height="current" viewBox="0 0 53 55" fill="none" xmlns="http://www.w3.org/2000/svg">
<path d="M34.9103 19.8148L22.4412 32.7547L16.985 27.0949C16.9798 27.0895 16.9745 27.084 16.9691 27.0785C16.5336 26.6357 15.8346 26.643 15.4079 27.0949C14.981 27.547 14.9882 28.2724 15.4237 28.7152L21.6605 35.1851C21.8672 35.4004 22.1483 35.5212 22.4412 35.5208C22.734 35.5211 23.0149 35.4004 23.2217 35.1851L36.4717 21.4351C36.477 21.4297 36.4822 21.4243 36.4875 21.4188C36.9142 20.9668 36.9072 20.2414 36.4717 19.7986C36.0362 19.3556 35.3372 19.3631 34.9103 19.8148ZM26.4998 4.58331C14.3036 4.58331 4.4165 14.8435 4.4165 27.5C4.4165 40.1565 14.3036 50.4166 26.4998 50.4166C38.6901 50.4018 48.5689 40.1503 48.5832 27.5C48.5832 14.8435 38.6961 4.58331 26.4998 4.58331ZM26.4998 48.125C15.5231 48.125 6.62484 38.8909 6.62484 27.5C6.62484 16.1091 15.5231 6.87498 26.4998 6.87498C37.4715 6.88743 46.3628 16.1142 46.3748 27.5C46.3748 38.8909 37.4765 48.125 26.4998 48.125Z" fill="current"/>
</svg>
