<!-- <svg width="current" height="current" viewBox="0 0 55 54" fill="current" xmlns="http://www.w3.org/2000/svg">
<path d="M40.3365 16.9166L40.3365 16.9166C40.8474 16.425 41.6662 16.433 42.167 16.9347C42.6621 17.4306 42.6621 18.2254 42.167 18.7214L42.1659 18.7224L23.4657 37.0826L40.3365 16.9166ZM40.3365 16.9166L40.3355 16.9177M40.3365 16.9166L40.3355 16.9177M40.3355 16.9177L22.5503 34.3794L14.6659 26.6384L14.6659 26.6384M40.3355 16.9177L14.6659 26.6384M14.6659 26.6384L14.6648 26.6373M14.6659 26.6384L14.6648 26.6373M14.6648 26.6373C14.1613 26.1527 13.3566 26.1527 12.853 26.6373C12.3407 27.1303 12.3324 27.9389 12.8345 28.4421L12.8356 28.4431M14.6648 26.6373L12.8356 28.4431M12.8356 28.4431L21.6351 37.0826L12.8356 28.4431Z" fill="current" stroke="current" stroke-width="0.3"/>
</svg> -->
<svg width="current" height="current" viewBox="0 0 26 26" fill="none" xmlns="http://www.w3.org/2000/svg">
<path d="M10.6598 18.1116C10.8433 18.1117 11.0193 18.0387 11.1489 17.9088L19.9889 9.06878L19.9889 9.06878L19.9899 9.06771C20.2535 8.79879 20.2535 8.36842 19.9899 8.0995C19.7225 7.8267 19.2847 7.82231 19.0119 8.0897L19.0108 8.09076L10.6597 16.4419L6.98889 12.7711L6.98889 12.7711L6.98782 12.77C6.7189 12.5064 6.28861 12.5064 6.01969 12.77C5.74686 13.0374 5.74249 13.4752 6.0098 13.748L6.00979 13.748L6.01087 13.7491L10.1705 17.9088C10.3001 18.0388 10.4762 18.1118 10.6598 18.1116ZM10.6598 18.1116C10.6597 18.1116 10.6597 18.1116 10.6596 18.1116L10.6597 17.9616L10.6599 18.1116C10.6599 18.1116 10.6599 18.1116 10.6598 18.1116Z" fill="current" stroke="current" stroke-width="0.3"/>
</svg>
