<svg width="current" height="current" viewBox="0 0 54 55" fill="none" xmlns="http://www.w3.org/2000/svg">
<path d="M33.0905 27.5L36.7953 23.7267C37.2163 23.2827 37.2163 22.5787 36.7953 22.1346C36.3636 21.6795 35.6514 21.6669 35.2046 22.1065L31.4998 25.8799L27.7953 22.1067C27.3594 21.6778 26.6682 21.6778 26.2322 22.1067C25.7853 22.5463 25.7729 23.2717 26.2046 23.7268L29.9092 27.5L26.2046 31.2732C25.9936 31.488 25.8751 31.7794 25.8751 32.0832C25.875 32.716 26.3787 33.229 27 33.2292C27.2984 33.2295 27.5846 33.1086 27.7953 32.8933L31.4998 29.1201L35.2046 32.8935C35.4152 33.1087 35.7016 33.2296 36 33.2292C36.2981 33.229 36.584 33.1085 36.795 32.8938C37.2344 32.4463 37.2346 31.7208 36.7953 31.2733L33.0905 27.5ZM43.875 11.4583H22.1133C20.6206 11.454 19.1884 12.0584 18.1362 13.1368L4.82957 26.69C4.82944 26.69 4.82957 26.6899 4.82957 26.69C4.39039 27.1373 4.39026 27.863 4.82957 28.3101L18.1362 41.8632C19.1884 42.9416 20.6206 43.546 22.1133 43.5417H43.875C46.9804 43.5387 49.4971 40.9754 49.5 37.8125V17.1875C49.4971 14.0246 46.9804 11.4613 43.875 11.4583ZM47.25 37.8125C47.2479 39.7102 45.7381 41.2479 43.875 41.25H22.1133C21.2187 41.2472 20.3614 40.8854 19.727 40.2429L7.21567 27.5L19.727 14.7571C20.3614 14.1147 21.2187 13.7528 22.1133 13.75H43.875C45.7381 13.7521 47.2479 15.2899 47.25 17.1875V37.8125Z" fill="current"/>
</svg>
