<svg width="current" height="current" viewBox="0 0 53 55" fill="none" xmlns="http://www.w3.org/2000/svg">
<path d="M36.9397 7.28789C27.1841 1.85287 15.2714 4.81998 8.83317 13.7479V8.02082C8.83317 7.38804 8.33878 6.87498 7.729 6.87498C7.11923 6.87498 6.62484 7.38804 6.62484 8.02082V17.1875C6.62484 17.1869 6.62484 17.1879 6.62484 17.1875C6.62524 17.8198 7.1195 18.3337 7.729 18.3333H16.5623C17.1721 18.3333 17.6665 17.8203 17.6665 17.1875C17.6665 16.5547 17.1721 16.0417 16.5623 16.0417H9.98505C13.619 10.3887 19.7216 6.90044 26.3528 6.87498C37.2889 6.83288 46.1872 15.9987 46.2278 27.3474C46.2684 38.6961 37.436 47.9303 26.4998 47.9724C15.5638 48.0145 6.66541 38.8487 6.62484 27.5C6.62484 27.133 6.62376 26.7861 6.64425 26.4191C6.64425 26.4188 6.64425 26.4193 6.64425 26.4191C6.67889 25.7879 6.21387 25.2464 5.60586 25.2106C5.59319 25.2096 5.58052 25.2089 5.56785 25.2083C4.96886 25.1837 4.46395 25.6677 4.44023 26.2893C4.41758 26.701 4.4165 27.0882 4.4165 27.5C4.43039 40.1505 14.3094 50.4022 26.4998 50.4167C34.6339 50.4125 42.1078 45.7708 45.9552 38.3338C51.7271 27.1772 47.6906 13.2775 36.9397 7.28789ZM26.4998 18.3333C25.8901 18.3333 25.3957 18.8464 25.3957 19.4792V27.5C25.3957 27.4996 25.3957 27.5004 25.3957 27.5C25.3961 28.1325 25.8903 28.6462 26.4998 28.6458H32.0207C32.6304 28.6458 33.1248 28.1328 33.1248 27.5C33.1248 26.8672 32.6304 26.3542 32.0207 26.3542H27.604V19.4792C27.604 18.8464 27.1096 18.3333 26.4998 18.3333Z" fill="current"/>
</svg>
