<svg width="current" height="current" viewBox="0 0 53 54" fill="none" xmlns="http://www.w3.org/2000/svg">
<path d="M42.8755 11.9031C34.6925 2.68821 20.7271 1.97671 11.6828 10.314C2.63854 18.6513 1.94021 32.8803 10.1231 42.0952L4.74026 47.5796C4.53323 47.7905 4.41691 48.0766 4.41691 48.3749C4.41677 48.9961 4.91117 49.4999 5.52094 49.5H26.5001C31.9755 49.4999 37.2556 47.4271 41.3158 43.6844C50.3602 35.347 51.0584 21.118 42.8755 11.9031ZM26.5001 47.25H8.18633L12.4457 42.9104C12.4457 42.9105 12.4458 42.9103 12.4457 42.9104C12.8767 42.4711 12.8769 41.7586 12.4457 41.3196C8.71941 37.523 6.62564 32.3738 6.62511 27.0045C6.62389 15.822 15.5202 6.75576 26.4957 6.75453C37.471 6.75329 46.3694 15.8174 46.3707 27C46.3719 38.1824 37.4756 47.2488 26.5001 47.25Z" fill="current"/>
</svg>
