<svg width="current" height="current" viewBox="0 0 54 54" fill="none" xmlns="http://www.w3.org/2000/svg">
<path d="M45.6544 44.064C48.1338 41.202 49.499 37.5426 49.4996 33.7561C49.5009 27.3469 45.6669 21.8422 40.1722 19.3832C39.5979 16.1219 38.1692 13.0685 35.9711 10.5805C29.3909 3.13263 18.0189 2.42909 10.571 9.00922C3.12305 15.5893 2.41951 26.9613 8.99964 34.4093L4.82922 38.5796C4.61829 38.7905 4.49977 39.0766 4.49977 39.3749C4.49963 39.9962 5.00336 40.4999 5.62463 40.5H19.5407C22.0691 45.8151 27.472 49.4988 33.7496 49.5H48.3746C48.6729 49.5 48.9588 49.3815 49.1698 49.1706C49.6092 48.7314 49.6092 48.0191 49.17 47.5796L45.6544 44.064ZM18.6544 38.25H8.34032L11.3617 35.2288C11.8007 34.7895 11.801 34.077 11.3617 33.638C9.3869 31.6636 7.97283 29.1993 7.26448 26.4982C5.05911 18.088 10.0891 9.48259 18.4991 7.27722C26.9093 5.07199 35.5147 10.1019 37.7201 18.512C37.7201 18.512 37.7472 18.5333 37.7543 18.5389C36.4753 18.2033 35.14 18.0063 33.7557 18.0061C25.0589 18.0044 18.0073 25.0532 18.0057 33.75C18.0054 35.3228 18.2426 36.839 18.6715 38.2721C18.6687 38.2686 18.6544 38.25 18.6544 38.25ZM33.7496 47.25C26.2938 47.25 20.2496 41.2059 20.2496 33.75C20.2496 26.2941 26.2938 20.25 33.7496 20.25C37.3293 20.2504 40.7622 21.6723 43.2937 24.203C48.5673 29.4748 48.5687 38.0237 43.2968 43.2973C42.8577 43.7364 42.8576 44.4489 43.2968 44.888L45.659 47.25H33.7496Z" fill="current"/>
</svg>
