<svg width="current" height="current" viewBox="0 0 28 28" fill="none" xmlns="http://www.w3.org/2000/svg">
<path fill-rule="evenodd" clip-rule="evenodd" d="M23.1163 24.8839C23.6045 25.372 24.3959 25.372 24.8841 24.8839C25.3722 24.3957 25.3722 23.6043 24.8841 23.1161L14.768 13L24.8839 2.88407C25.372 2.39592 25.372 1.60446 24.8839 1.1163C24.3957 0.628148 23.6043 0.628148 23.1161 1.1163L13.0002 11.2322L2.88407 1.11611C2.39591 0.62796 1.60446 0.627962 1.1163 1.11612C0.628149 1.60427 0.628147 2.39573 1.1163 2.88388L11.2324 13L1.11611 23.1163C0.62796 23.6045 0.627962 24.3959 1.11612 24.8841C1.60427 25.3722 2.39573 25.3722 2.88388 24.8841L13.0002 14.7678L23.1163 24.8839Z" fill="current"/>
</svg>