<svg width="current" height="current" viewBox="0 0 53 55" fill="none" xmlns="http://www.w3.org/2000/svg">
<path d="M26.4999 25.5205L10.8981 9.32996L10.8981 9.32993L10.8951 9.32687C10.3696 8.80009 9.53258 8.80013 9.00698 9.32684L9.00696 9.32686C8.47319 9.86188 8.45879 10.7405 8.97385 11.2939L8.97382 11.2939L8.97683 11.297L24.5915 27.5009L8.97683 43.7048C8.724 43.9672 8.5835 44.3211 8.5835 44.6883C8.58333 45.4503 9.18095 46.084 9.93729 46.0843C9.93735 46.0843 9.93741 46.0843 9.93747 46.0843L9.93753 45.8343M26.4999 25.5205L10.8981 45.6719L10.7181 45.4984M26.4999 25.5205L42.1018 9.32982L42.1048 9.3267L42.1049 9.32672C42.6438 8.78656 43.5061 8.80245 44.0261 9.36108L43.8431 9.53141L26.4999 25.5205ZM9.93753 45.8343C10.2304 45.8345 10.5113 45.7137 10.7181 45.4984M9.93753 45.8343C9.32776 45.8341 8.83336 45.3211 8.8335 44.6883C8.8335 44.3845 8.94982 44.0931 9.15685 43.8783L24.9387 27.5009L9.93753 45.8343ZM10.7181 45.4984L10.8984 45.6716L26.4999 29.4814M10.7181 45.4984L26.3263 29.3012L26.4999 29.4814M26.4999 29.4814L26.6735 29.3012M26.4999 29.4814L42.1015 45.6717L42.2818 45.4986M26.6735 29.3012L43.0625 45.8343L43.0629 46.0843C42.7005 46.0848 42.3548 45.9352 42.1018 45.672L42.2818 45.4986M26.6735 29.3012L42.2818 45.4986M26.6735 29.3012L42.2818 45.4986M28.2411 27.6744L28.4083 27.5009L28.2411 27.3275L28.0611 27.5009L28.2411 27.6744Z" fill="current" stroke="white" stroke-width="0.5"/>
</svg>
