<svg width="current" height="current" viewBox="0 0 53 54" fill="none" xmlns="http://www.w3.org/2000/svg">
<path d="M26.5264 4.50879C14.3349 4.50138 4.44576 14.565 4.43848 26.9865C4.4312 39.4081 14.3085 49.4838 26.5 49.4912C32.3571 49.501 37.9767 47.1327 42.1157 42.9104C46.2564 38.6952 48.5844 32.9771 48.5879 27.0135C48.5952 14.5919 38.7179 4.51621 26.5264 4.50879ZM26.5271 47.2412C15.5551 47.2488 6.65463 38.1927 6.64708 27.0137C6.63967 15.8349 15.5281 6.76635 26.5 6.75879C31.7715 6.74918 36.8293 8.88025 40.5544 12.6804C44.2808 16.4736 46.3763 21.6193 46.3798 26.9863C46.3874 38.1651 37.4989 47.2335 26.5271 47.2412ZM28.0612 27L35.0873 19.8413C35.5081 19.4039 35.5081 18.704 35.0873 18.2666C34.6606 17.8229 33.9616 17.8157 33.5261 18.2505L26.5 25.4092L19.4739 18.2506C19.0446 17.822 18.3576 17.822 17.9283 18.2506C17.4928 18.6854 17.4858 19.3976 17.9125 19.8413L24.9386 27L17.9125 34.1587C17.7055 34.3696 17.5893 34.6557 17.5891 34.954C17.5891 35.5752 18.0834 36.079 18.6932 36.0791C18.9861 36.0795 19.2671 35.9609 19.4739 35.7495L26.5 28.5908L33.5261 35.7495C33.7329 35.9609 34.0139 36.0795 34.3068 36.0791C34.5995 36.079 34.8802 35.9606 35.0872 35.7498C35.5185 35.3105 35.5185 34.5982 35.0873 34.1587L28.0612 27Z" fill="current"/>
</svg>
