<svg width="current" height="current" viewBox="0 0 54 55" fill="none" xmlns="http://www.w3.org/2000/svg">
<path d="M40.1429 26.69C39.7069 26.261 39.0157 26.261 38.5799 26.69L28.1251 37.3381V14.8958C28.1251 14.2631 27.6214 13.75 27.0001 13.75C26.3789 13.75 25.8751 14.2631 25.8751 14.8958V37.3381L15.4205 26.6899C14.9889 26.2347 14.2767 26.222 13.8299 26.6617C13.3829 27.1014 13.3705 27.8267 13.8021 28.2819C13.8112 28.2914 13.8204 28.3008 13.8299 28.31L26.2049 40.9142C26.6439 41.3616 27.356 41.3619 27.7953 40.9146C27.7951 40.9147 27.7954 40.9146 27.7953 40.9146L40.1705 28.3101C40.6022 27.855 40.5898 27.1296 40.1429 26.69Z" fill="current"/>
</svg>
