<svg width="current" height="current" viewBox="0 0 54 55" fill="none" xmlns="http://www.w3.org/2000/svg">
<path d="M36.2224 22.0017L36.2243 21.9999C36.731 21.5013 37.5397 21.5157 38.029 22.0317M36.2224 22.0017L36.3295 22.1068C36.7763 21.6672 37.4885 21.6798 37.9202 22.1349C38.3413 22.579 38.3413 23.283 37.9202 23.7271L27.7952 34.0396M36.2224 22.0017L26.9999 31.3952M36.2224 22.0017L26.9999 31.3952M38.029 22.0317L37.9202 22.1349L38.029 22.0317C38.029 22.0317 38.029 22.0317 38.029 22.0317ZM38.029 22.0317C38.5051 22.5337 38.5051 23.3283 38.029 23.8303L38.0272 23.8322L38.0272 23.8322L27.9024 34.1445M27.9024 34.1445L27.7952 34.0396M27.9024 34.1445C27.6638 34.3883 27.3391 34.5255 27 34.5253M27.9024 34.1445L27.9022 34.1447L27.7952 34.0396M27.7952 34.0396L26.9999 31.3952M26.9999 31.3952L17.7772 22.0019L17.7772 22.0018L17.7754 22C17.2811 21.5137 16.4963 21.5138 16.0019 22L16.0019 22C15.4967 22.497 15.4828 23.3159 15.9706 23.8303L15.9706 23.8303L15.9724 23.8322L26.0973 34.1445C26.3359 34.3883 26.6608 34.5257 27 34.5253M27 34.5253C26.9999 34.5253 26.9998 34.5253 26.9997 34.5253L26.9999 34.3753L27.0001 34.5253C27.0001 34.5253 27 34.5253 27 34.5253Z" fill="black" stroke="black" stroke-width="0.3"/>
</svg>
