<svg width="current" height="current" viewBox="0 0 21 21" fill="none" xmlns="http://www.w3.org/2000/svg">
<path d="M13.1501 10.5C13.1503 10.6503 13.0905 10.7946 12.9841 10.9007C12.984 10.9008 12.984 10.9008 12.9839 10.9009L9.2341 14.6507L9.23226 14.6526L9.23224 14.6525C9.00715 14.87 8.64841 14.8637 8.431 14.6386L8.43099 14.6386C8.21892 14.419 8.2189 14.0709 8.431 13.8513L8.43281 13.8494L8.43282 13.8494L11.7822 10.5001L8.44485 6.34762C8.66447 6.13548 9.01263 6.13548 9.23225 6.34763L9.23411 6.34943L9.2341 6.34945L12.9839 10.0993C12.984 10.0993 12.984 10.0994 12.9841 10.0994C13.0905 10.2056 13.1502 10.3498 13.1501 10.5ZM13.1501 10.5C13.1501 10.5001 13.1501 10.5001 13.1501 10.5002L13.0001 10.5001L13.1501 10.4999C13.1501 10.4999 13.1501 10.5 13.1501 10.5Z" fill="current" stroke="white" stroke-width="0.3"/>
</svg>
