<svg width="current" height="current" viewBox="0 0 25 25" fill="none" xmlns="http://www.w3.org/2000/svg">
<path d="M20.8561 21.7969C23.7539 19.0923 25.0418 14.5845 24.2691 10.27H12.7422V15.0353H19.3106C19.053 16.5808 18.1514 17.8687 16.8635 18.7059L20.8561 21.7969Z" fill="#4285F4"/>
<path d="M1.79492 17.9977C2.64205 19.6664 3.85695 21.1211 5.34803 22.252C6.83911 23.383 8.56747 24.1607 10.4028 24.5265C12.2382 24.8923 14.1326 24.8368 15.9434 24.364C17.7541 23.8912 19.4339 23.0135 20.8561 21.797L16.8636 18.706C13.4506 20.9599 7.78375 20.1228 5.85187 14.8423L1.79492 17.9977Z" fill="#34A853"/>
<path d="M5.85211 14.8421C5.33695 13.2322 5.33695 11.7511 5.85211 10.1412L1.79517 6.98584C0.314062 9.94805 -0.13671 14.1338 1.79517 17.9975L5.85211 14.8421Z" fill="#FBBC02"/>
<path d="M5.85187 10.1413C7.26858 5.69798 13.3218 3.12214 17.3787 6.9215L20.9205 3.44412C15.8976 -1.38558 6.10945 -1.19239 1.79492 6.9859L5.85187 10.1413Z" fill="#EA4335"/>
</svg>
