<svg width="current" height="current" viewBox="0 0 24 21" fill="none" xmlns="http://www.w3.org/2000/svg">
<path d="M23.9973 6.39854C23.9252 4.71353 23.2001 3.1118 21.9591 1.8961C21.3662 1.30739 20.6542 0.836358 19.8651 0.510724C19.0759 0.185091 18.2256 0.0114413 17.3641 0C15.8962 0.00259684 14.484 0.529262 13.4122 1.4738C12.8805 1.92803 12.4104 2.44239 12.0126 3.00518C11.6143 2.44153 11.1434 1.92645 10.6108 1.47166C9.53865 0.527907 8.12648 0.00201819 6.65893 0C5.79809 0.0103378 4.94814 0.182648 4.15903 0.506802C3.36992 0.830955 2.65758 1.30041 2.06389 1.88757C0.815087 3.10318 0.0840797 4.70855 0.00982571 6.39854C-0.105673 8.67428 0.8002 11.2486 2.56212 13.6502C4.60033 16.4229 7.75504 18.9162 11.6729 20.84L11.9968 21L12.3229 20.84C16.2431 18.9205 19.3932 16.4293 21.436 13.6502C23.1979 11.2529 24.1038 8.67855 23.9905 6.39854H23.9973Z" fill="white"/>
</svg>
