<svg width="current" height="current" viewBox="0 0 55 55" fill="none" xmlns="http://www.w3.org/2000/svg">
<path d="M28.8649 18.5746C25.8039 17.7819 22.68 19.6207 21.8874 22.6817C21.7292 23.2947 22.0979 23.9199 22.7109 24.0781C23.324 24.2363 23.9492 23.8676 24.1074 23.2546C24.3978 22.1243 25.2421 21.2186 26.3492 20.8495C28.1499 20.2491 30.0962 21.2224 30.6964 23.0229C31.2967 24.8237 30.3236 26.77 28.5229 27.3702C27.1396 27.8842 26.2359 29.2205 26.2738 30.6958V32.136C26.274 32.7685 26.7871 33.281 27.4196 33.2806C28.0521 33.2802 28.5658 32.7673 28.5654 32.1348V30.6958C28.5344 30.2034 28.8116 29.7434 29.2614 29.541C31.0922 28.9228 32.4876 27.4226 32.972 25.552C33.7646 22.4912 31.9257 19.3672 28.8649 18.5746ZM27.4192 35.2857C26.6281 35.2857 25.9869 35.927 25.9869 36.718C25.9869 37.509 26.6281 38.1503 27.4192 38.1503C28.2102 38.1503 28.8515 37.509 28.8515 36.718C28.8515 35.927 28.2102 35.2857 27.4192 35.2857ZM27.5002 4.58331C14.8437 4.58331 4.5835 14.8435 4.5835 27.5C4.5835 40.1565 14.8437 50.4166 27.5002 50.4166C40.1505 50.4018 50.402 40.1503 50.4168 27.5C50.4168 14.8435 40.1566 4.58331 27.5002 4.58331ZM27.5002 48.125C16.1092 48.125 6.87516 38.8909 6.87516 27.5C6.87516 16.1091 16.1092 6.87498 27.5002 6.87498C38.8859 6.88743 48.1127 16.1142 48.1252 27.5C48.1252 38.8909 38.8911 48.125 27.5002 48.125Z" fill="current"/>
</svg>
