<svg width="current" height="current" viewBox="0 0 52 55" fill="none" xmlns="http://www.w3.org/2000/svg">
<path d="M26.0002 19.1927C25.2523 19.1927 24.646 19.834 24.646 20.625C24.646 21.416 25.2523 22.0573 26.0002 22.0573C26.748 22.0573 27.3543 21.416 27.3543 20.625C27.3543 19.834 26.748 19.1927 26.0002 19.1927ZM26.0002 24.0625C25.4019 24.0625 24.9168 24.5755 24.9168 25.2083V34.3762C24.9172 35.0087 25.4022 35.5212 26.0002 35.5208C26.598 35.5204 27.0839 35.0075 27.0835 34.375V25.2083C27.0835 24.5755 26.5984 24.0625 26.0002 24.0625ZM26.0002 4.58331C14.034 4.58331 4.3335 14.8435 4.3335 27.5C4.3335 40.1565 14.034 50.4166 26.0002 50.4166C37.9605 50.4018 47.6528 40.1503 47.6668 27.5C47.6668 14.8435 37.9663 4.58331 26.0002 4.58331ZM26.0002 48.125C15.2306 48.125 6.50016 38.8909 6.50016 27.5C6.50016 16.1091 15.2306 6.87498 26.0002 6.87498C36.7649 6.88743 45.4884 16.1142 45.5002 27.5C45.5002 38.8909 36.7698 48.125 26.0002 48.125Z" fill="current"/>
</svg>
