<svg width="current" height="current" viewBox="0 0 53 54" fill="none" xmlns="http://www.w3.org/2000/svg">
<path d="M38.6457 25.875H17.0195L27.2806 15.4204C27.7161 14.9856 27.7231 14.2734 27.2964 13.8297C26.8695 13.386 26.1705 13.3787 25.735 13.8136C25.7297 13.8189 25.7245 13.8242 25.7192 13.8297L13.5734 26.2047C13.1421 26.6436 13.1414 27.3552 13.5722 27.7947C13.5715 27.7947 13.5725 27.7951 13.5722 27.7947L25.7192 40.1704C26.1547 40.6052 26.8537 40.598 27.2805 40.1543C27.7013 39.7169 27.7013 39.017 27.2805 38.5796L17.0195 28.125H38.6457C39.2555 28.125 39.7499 27.6213 39.7499 27C39.7499 26.3787 39.2555 25.875 38.6457 25.875Z" fill="current"/>
</svg>
