<svg width="current" height="current" viewBox="0 0 55 54" fill="none" xmlns="http://www.w3.org/2000/svg">
<path d="M38.9587 20.25V15.75C38.9587 9.53682 33.8286 4.5 27.5003 4.5C21.1721 4.5 16.042 9.53682 16.042 15.75V20.25C12.2467 20.2541 9.17119 23.2737 9.16699 27V42.75C9.17119 46.4763 12.2467 49.4959 16.042 49.5H38.9587C42.754 49.4959 45.8295 46.4763 45.8337 42.75V27C45.8295 23.2737 42.754 20.2541 38.9587 20.25ZM18.3337 15.75C18.3337 10.7794 22.4377 6.75 27.5003 6.75C32.563 6.75 36.667 10.7794 36.667 15.75V20.25H18.3337V15.75ZM43.542 42.75C43.5388 45.234 41.4887 47.2468 38.9587 47.25H16.042C13.512 47.2468 11.4619 45.234 11.4587 42.75V27C11.4619 24.516 13.512 22.5032 16.042 22.5H38.9587C41.4887 22.5032 43.5388 24.516 43.542 27V42.75ZM27.5003 29.25C26.8675 29.25 26.3545 29.7537 26.3545 30.375V39.3762C26.3549 39.9972 26.8678 40.5004 27.5003 40.5C28.1327 40.4996 28.6466 39.996 28.6462 39.375V30.375C28.6462 29.7537 28.1331 29.25 27.5003 29.25Z" fill="current"/>
</svg>
