<svg width="current" height="current" viewBox="0 0 53 55" fill="none" xmlns="http://www.w3.org/2000/svg">
<path d="M48.2729 48.4748L39.0821 38.9372C42.2291 35.2892 44.161 30.4888 44.1665 25.2083C44.1665 13.8174 35.2682 4.58331 24.2915 4.58331C13.3148 4.58331 4.4165 13.8174 4.4165 25.2083C4.4165 36.5992 13.3148 45.8333 24.2915 45.8333C29.3798 45.8276 34.0057 43.8231 37.5209 40.5575L46.7115 50.0949C47.1395 50.5239 47.8179 50.5239 48.2458 50.0949C48.6844 49.6553 48.6965 48.9299 48.2729 48.4748ZM24.2915 43.5416C14.5345 43.5416 6.62484 35.3335 6.62484 25.2083C6.62484 15.0831 14.5345 6.87498 24.2915 6.87498C34.0439 6.88659 41.947 15.0879 41.9582 25.2083C41.9582 35.3335 34.0485 43.5416 24.2915 43.5416Z" fill="current"/>
</svg>
