<svg width="current" height="current" viewBox="0 0 53 55" fill="none" xmlns="http://www.w3.org/2000/svg">
<path d="M26.5002 16.0417C28.9382 16.0385 30.9137 13.9883 30.9168 11.4583C30.9168 8.92707 28.9394 6.875 26.5002 6.875C24.0609 6.875 22.0835 8.92707 22.0835 11.4583C22.0835 13.9896 24.0609 16.0417 26.5002 16.0417ZM26.5002 9.16667C27.7194 9.16751 28.7077 10.193 28.7085 11.4583C28.7085 12.724 27.7198 13.75 26.5002 13.75C25.2805 13.75 24.2918 12.724 24.2918 11.4583C24.2918 10.1926 25.2805 9.16667 26.5002 9.16667ZM26.5002 22.9167C24.0609 22.9167 22.0835 24.9687 22.0835 27.5C22.0835 30.0313 24.0609 32.0833 26.5002 32.0833C28.9382 32.0801 30.9137 30.03 30.9168 27.5C30.9168 24.9687 28.9394 22.9167 26.5002 22.9167ZM26.5002 29.7917C25.2805 29.7917 24.2918 28.7657 24.2918 27.5C24.2918 26.2343 25.2805 25.2083 26.5002 25.2083C27.7194 25.2092 28.7077 26.2347 28.7085 27.5C28.7085 28.7657 27.7198 29.7917 26.5002 29.7917ZM26.5002 38.9583C24.0609 38.9583 22.0835 41.0104 22.0835 43.5417C22.0835 46.0729 24.0609 48.125 26.5002 48.125C28.9382 48.1218 30.9137 46.0717 30.9168 43.5417C30.9168 41.0104 28.9394 38.9583 26.5002 38.9583ZM26.5002 45.8333C25.2805 45.8333 24.2918 44.8074 24.2918 43.5417C24.2918 42.276 25.2805 41.25 26.5002 41.25C27.7194 41.2508 28.7077 42.2764 28.7085 43.5417C28.7085 44.8074 27.7198 45.8333 26.5002 45.8333Z" fill="current"/>
</svg>
