<svg width="current" height="current" viewBox="0 0 54 55" fill="none" xmlns="http://www.w3.org/2000/svg">
<path d="M40.5 32.3125V22.9166C40.5 15.8125 35.1 9.85415 28.125 9.16665V5.72915C28.125 5.04165 27.675 4.58331 27 4.58331C26.325 4.58331 25.875 5.04165 25.875 5.72915V9.16665C18.9 9.85415 13.5 15.8125 13.5 22.9166V32.3125C11.025 32.7708 9 35.0625 9 37.8125V42.3958C9 43.0833 9.45 43.5416 10.125 43.5416H18.45C19.575 47.4375 22.95 50.4166 27 50.4166C31.05 50.4166 34.65 47.4375 35.55 43.5416H43.875C44.55 43.5416 45 43.0833 45 42.3958V37.8125C45 35.0625 42.975 32.7708 40.5 32.3125ZM15.75 22.9166C15.75 16.5 20.7 11.4583 27 11.4583C33.3 11.4583 38.25 16.5 38.25 22.9166V32.0833H15.75V22.9166ZM29.25 47.6666C25.65 48.8125 21.825 46.9791 20.7 43.5416H33.3C32.625 45.6041 31.05 46.9791 29.25 47.6666ZM42.75 41.25H11.25V37.8125C11.25 35.9791 12.825 34.375 14.625 34.375H39.375C41.175 34.375 42.75 35.9791 42.75 37.8125V41.25Z" fill="current"/>
</svg>
