<svg width="current" height="current" viewBox="0 0 54 54" fill="none" xmlns="http://www.w3.org/2000/svg">
<path d="M40.1707 26.2049C40.1705 26.2047 40.1707 26.205 40.1707 26.2049L27.7954 13.8296C27.3485 13.398 26.6364 13.4103 26.2047 13.8572C25.7837 14.2932 25.7837 14.9844 26.2047 15.4203L36.6593 25.875H14.625C14.0037 25.875 13.5 26.3787 13.5 27C13.5 27.6213 14.0037 28.125 14.625 28.125H36.6593L26.2046 38.5796C25.7577 39.0112 25.7454 39.7234 26.177 40.1703C26.6086 40.6173 27.3209 40.6296 27.7678 40.198C27.7771 40.189 27.7863 40.1798 27.7954 40.1703L40.1704 27.7953C40.6097 27.3562 40.6097 26.6442 40.1707 26.2049Z" fill="current"/>
</svg>
