<svg width="current" height="current" viewBox="0 0 53 54" fill="none" xmlns="http://www.w3.org/2000/svg">
<path d="M27.8148 18.1864C24.8651 17.4081 21.8548 19.2134 21.091 22.2188C20.9385 22.8207 21.2938 23.4345 21.8846 23.5898C22.4754 23.7452 23.0779 23.3832 23.2303 22.7812C23.5103 21.6725 24.323 20.7839 25.389 20.4215C27.1237 19.8317 28.9993 20.7864 29.5782 22.5538C30.157 24.3214 29.2199 26.2322 27.4852 26.822C26.1522 27.3267 25.2813 28.6387 25.3179 30.0872V31.5012C25.3181 32.1222 25.8125 32.6254 26.422 32.625C27.0315 32.6246 27.5266 32.121 27.5262 31.5V30.0872C27.5009 29.605 27.7665 29.1557 28.1969 28.9534C29.9611 28.3464 31.3057 26.8735 31.7725 25.0369C32.5363 22.0317 30.7643 18.9646 27.8148 18.1864ZM26.4216 34.5938C25.6593 34.5938 25.0414 35.2234 25.0414 36C25.0414 36.7766 25.6593 37.4062 26.4216 37.4062C27.1839 37.4062 27.8018 36.7766 27.8018 36C27.8018 35.2234 27.1839 34.5938 26.4216 34.5938ZM44.143 8.44519C44.0181 7.83682 43.4328 7.44681 42.8357 7.57397C37.3828 8.74759 31.6965 7.56285 27.1337 4.30225C26.7533 4.02979 26.246 4.02979 25.8656 4.30225C21.3029 7.56285 15.6165 8.74759 10.1636 7.57397C10.0895 7.55818 10.014 7.55022 9.93825 7.55022C9.32821 7.5498 8.83341 8.05325 8.83301 8.6748V26.7166C8.83665 33.323 11.9583 39.5248 17.2221 43.3828L25.857 49.6912C26.0442 49.8285 26.2691 49.9024 26.4997 49.9021C26.7303 49.9024 26.9551 49.8286 27.1423 49.6913L35.7773 43.3828C41.0411 39.5248 44.1627 33.323 44.1663 26.7166V8.6748C44.1663 8.59763 44.1585 8.52072 44.143 8.44519ZM41.958 26.7166C41.9556 32.5979 39.1774 38.1194 34.4919 41.5547L26.4997 47.3928L18.5074 41.5547C13.822 38.1193 11.0438 32.5979 11.0413 26.7166V10.0195C16.4336 10.8405 21.9339 9.61688 26.4997 6.58081C31.0657 9.61606 36.5658 10.8397 41.958 10.0195V26.7166Z" fill="current"/>
</svg>
