<svg width="current" height="current" viewBox="0 0 54 55" fill="none" xmlns="http://www.w3.org/2000/svg">
<path d="M27 29.7916C26.9995 29.7916 27.0004 29.7916 27 29.7916C27.6209 29.7912 28.1254 29.2783 28.125 28.6458V21.7708C28.125 21.138 27.6213 20.625 27 20.625C26.3787 20.625 25.875 21.138 25.875 21.7708V28.6458C25.875 28.6454 25.875 28.6462 25.875 28.6458C25.8754 29.2783 26.379 29.7921 27 29.7916ZM44.9762 8.60156C44.8489 7.98193 44.2527 7.58469 43.6443 7.71421C38.0885 8.90942 32.295 7.7026 27.646 4.3819C27.2585 4.10439 26.7415 4.10439 26.354 4.3819C21.7049 7.70246 15.9115 8.90914 10.3557 7.71421C10.2802 7.69813 10.2033 7.69001 10.1261 7.69001C9.50455 7.6896 9.00041 8.20237 9 8.83543V27.2113C9.00371 33.9401 12.1843 40.2567 17.5474 44.1862L26.3452 50.6113C26.536 50.7512 26.765 50.8265 27 50.8262C27.235 50.8265 27.464 50.7514 27.6548 50.6115L36.4526 44.1862C41.8158 40.2567 44.9963 33.9401 45 27.2113V8.83543C45 8.75682 44.992 8.67849 44.9762 8.60156ZM42.75 27.2113C42.7475 33.2016 39.9169 38.8253 35.1431 42.3242L27 48.2704L18.8569 42.3242C14.0831 38.8252 11.2525 33.2016 11.25 27.2113V10.2051C16.744 11.0412 22.3481 9.79495 27 6.70266C31.652 9.79439 37.256 11.0407 42.75 10.2051V27.2113ZM27 31.7969C26.2234 31.7969 25.5938 32.4382 25.5938 33.2291C25.5938 34.0201 26.2234 34.6614 27 34.6614C27.7766 34.6614 28.4063 34.0201 28.4063 33.2291C28.4063 32.4382 27.7766 31.7969 27 31.7969Z" fill="current"/>
</svg>
