<svg width="current" height="current" viewBox="0 0 54 55" fill="none" xmlns="http://www.w3.org/2000/svg">
<path d="M31.267 22.7937L24.4115 29.776L21.6078 26.9181C21.1705 26.4816 20.4706 26.4816 20.0332 26.9181C19.5894 27.3611 19.5823 28.0865 20.0171 28.5384L23.6162 32.2064C23.8272 32.4214 24.1132 32.5421 24.4116 32.5421C24.7099 32.5421 24.996 32.4214 25.2069 32.2064L32.8738 24.3975C33.3086 23.9455 33.3015 23.22 32.8578 22.7772C32.4141 22.3344 31.7019 22.3416 31.267 22.7937ZM44.9762 8.60156C44.8489 7.98193 44.2527 7.58469 43.6443 7.71421C38.0885 8.90914 32.2951 7.70246 27.646 4.3819C27.2585 4.10439 26.7415 4.10439 26.354 4.3819C21.705 7.7026 15.9115 8.90942 10.3557 7.71421C10.2802 7.69813 10.2033 7.69001 10.1261 7.69001C9.50455 7.6896 9.00041 8.20237 9 8.83543V27.2113C9.00371 33.9401 12.1843 40.2567 17.5474 44.1862L26.3452 50.6113C26.536 50.7512 26.765 50.8265 27 50.8262C27.235 50.8265 27.464 50.7514 27.6548 50.6115L36.4526 44.1862C41.8158 40.2567 44.9963 33.9401 45 27.2113V8.83543C45 8.75682 44.992 8.67849 44.9762 8.60156ZM42.75 27.2113C42.7475 33.2016 39.9169 38.8253 35.1431 42.3242L27 48.2704L18.8569 42.3242C14.0831 38.8252 11.2525 33.2016 11.25 27.2113V10.2051C16.744 11.0409 22.3481 9.79481 27 6.70266C31.6523 9.79397 37.2562 11.0401 42.75 10.2051V27.2113Z" fill="current"/>
</svg>
