<svg width="current" height="current" viewBox="0 0 54 54" fill="none" xmlns="http://www.w3.org/2000/svg">
<path d="M38.25 20.25H18V15.75C17.9993 12.7412 19.5025 9.93134 22.0056 8.26197C26.14 5.50481 31.7267 6.62116 34.4839 10.7556C35.2895 11.9466 35.7889 13.3179 35.9385 14.748C36.0073 15.3642 36.5617 15.8087 37.178 15.7419C37.7959 15.6749 38.2423 15.1198 38.1753 14.5019C37.988 12.7103 37.3615 10.9926 36.3516 9.50095C35.9423 8.89121 35.4743 8.32308 34.9541 7.80466C32.8567 5.67578 29.9884 4.48418 27 4.49997C20.7898 4.50725 15.7573 9.53981 15.75 15.75V20.25C12.0237 20.2541 9.00412 23.2737 9 27V42.75C9.00412 46.4763 12.0237 49.4958 15.75 49.5H38.25C41.9763 49.4958 44.9959 46.4763 45 42.75V27C44.9959 23.2737 41.9763 20.2541 38.25 20.25ZM42.75 42.75C42.7468 45.234 40.734 47.2468 38.25 47.25H15.75C13.266 47.2468 11.2532 45.234 11.25 42.75V27C11.2532 24.516 13.266 22.5031 15.75 22.5H38.25C40.734 22.5031 42.7468 24.516 42.75 27V42.75ZM27 29.25C26.3787 29.25 25.875 29.7537 25.875 30.375V39.3762C25.8754 39.9972 26.379 40.5004 27 40.5C27.6209 40.4996 28.1254 39.996 28.125 39.375V30.375C28.125 29.7537 27.6213 29.25 27 29.25Z" fill="current"/>
</svg>
