<svg width="current" height="current" viewBox="0 0 53 55" fill="none" xmlns="http://www.w3.org/2000/svg">
<path d="M26.5001 20.4747C26.1656 20.4745 25.8459 20.6124 25.6115 20.8565L15.6741 31.1688L15.6741 31.1688L15.6723 31.1707C15.2053 31.6724 15.2053 32.4656 15.6723 32.9673C16.1538 33.4845 16.9508 33.4991 17.4496 32.9991L17.4514 32.9973L26.5002 23.6069L35.5491 32.9971L35.5491 32.9972L35.5509 32.999C36.0374 33.4866 36.8109 33.4866 37.2975 32.999L37.2975 32.999C37.7932 32.5021 37.8066 31.6848 37.3282 31.1707L37.3282 31.1707L37.3264 31.1688L27.389 20.8565C27.1546 20.6124 26.8347 20.4743 26.5001 20.4747ZM26.5001 20.4747C26.5002 20.4747 26.5003 20.4747 26.5003 20.4747L26.5002 20.6247L26.5 20.4747C26.5 20.4747 26.5001 20.4747 26.5001 20.4747Z" fill="black" stroke="black" stroke-width="0.3"/>
</svg>
