<svg width="current" height="current" viewBox="0 0 54 55" fill="none" xmlns="http://www.w3.org/2000/svg">
<path d="M40.1979 26.718C40.1888 26.7084 40.1796 26.6991 40.1702 26.6898L27.7952 14.0857C27.3561 13.6382 26.6441 13.6381 26.2048 14.0854C26.2046 14.0854 26.2049 14.0853 26.2048 14.0854L13.8295 26.6898C13.3979 27.145 13.4102 27.8704 13.8571 28.31C14.2931 28.7388 14.9843 28.7388 15.4202 28.31L25.8749 17.6618V40.1041C25.8749 40.7369 26.3786 41.25 26.9999 41.25C27.6212 41.25 28.1249 40.7369 28.1249 40.1041V17.6618L38.5795 28.3101C39.0111 28.7653 39.7233 28.7779 40.1702 28.3382C40.6172 27.8986 40.6295 27.1731 40.1979 26.718Z" fill="current"/>
</svg>
