<svg width="current" height="current" viewBox="0 0 32 32" fill="none" xmlns="http://www.w3.org/2000/svg">
<path d="M16 0C12.8355 0 9.74207 0.938383 7.11088 2.69649C4.4797 4.45459 2.42894 6.95345 1.21793 9.87706C0.0069327 12.8007 -0.309921 16.0177 0.307443 19.1214C0.924806 22.2251 2.44866 25.0761 4.6863 27.3137C6.92394 29.5513 9.77486 31.0752 12.8786 31.6926C15.9823 32.3099 19.1993 31.9931 22.1229 30.7821C25.0466 29.5711 27.5454 27.5203 29.3035 24.8891C31.0616 22.2579 32 19.1645 32 16C31.9952 11.758 30.308 7.69113 27.3084 4.69159C24.3089 1.69205 20.242 0.00479943 16 0ZM16 29.8667C13.2574 29.8667 10.5765 29.0534 8.2961 27.5297C6.01574 26.006 4.23841 23.8403 3.18888 21.3065C2.13934 18.7727 1.86474 15.9846 2.39978 13.2947C2.93483 10.6049 4.2555 8.13407 6.19479 6.19479C8.13408 4.2555 10.6049 2.93483 13.2948 2.39978C15.9846 1.86473 18.7727 2.13933 21.3065 3.18887C23.8403 4.2384 26.006 6.01573 27.5297 8.29609C29.0534 10.5765 29.8667 13.2574 29.8667 16C29.8624 19.6764 28.4001 23.2009 25.8005 25.8005C23.201 28.4001 19.6764 29.8624 16 29.8667Z" fill="#434343"/>
<path d="M16.0001 6.73682C15.5534 6.73682 15.1251 6.85511 14.8092 7.06568C14.4934 7.27625 14.3159 7.56184 14.3159 7.85962V19.0877C14.3159 19.3855 14.4934 19.6711 14.8092 19.8816C15.1251 20.0922 15.5534 20.2105 16.0001 20.2105C16.4468 20.2105 16.8752 20.0922 17.191 19.8816C17.5069 19.6711 17.6843 19.3855 17.6843 19.0877V7.85962C17.6843 7.56184 17.5069 7.27625 17.191 7.06568C16.8752 6.85511 16.4468 6.73682 16.0001 6.73682Z" fill="#434343"/>
<path d="M16.0001 25.263C16.9303 25.263 17.6843 24.5089 17.6843 23.5787C17.6843 22.6486 16.9303 21.8945 16.0001 21.8945C15.07 21.8945 14.3159 22.6486 14.3159 23.5787C14.3159 24.5089 15.07 25.263 16.0001 25.263Z" fill="#434343"/>
</svg>
