<svg width="current" height="current" viewBox="0 0 53 55" fill="none" xmlns="http://www.w3.org/2000/svg">
<path d="M43.8431 43.8775L28.0611 27.5L43.8431 11.1225C44.2565 10.6786 44.2565 9.97459 43.8431 9.53049C43.4194 9.07535 42.7204 9.06276 42.2818 9.50238L26.4999 25.8799L10.7181 9.50252C10.2903 9.07367 9.61189 9.07367 9.18394 9.50252C8.74535 9.94214 8.73322 10.6675 9.15685 11.1227L24.9387 27.5L9.15685 43.8774C8.94982 44.0922 8.8335 44.3836 8.8335 44.6874C8.83336 45.3202 9.32776 45.8332 9.93753 45.8333C10.2304 45.8336 10.5113 45.7128 10.7181 45.4975L26.4999 29.1202L42.2818 45.4977C42.4886 45.7129 42.7696 45.8338 43.0625 45.8333C43.3552 45.8332 43.6358 45.7126 43.8428 45.4979C44.2741 45.0505 44.2743 44.325 43.8431 43.8775Z" fill="current"/>
</svg>
