<svg xmlns="http://www.w3.org/2000/svg" width="current" height="current" viewBox="0 0 19 20" fill="none">
  <path d="M6.95646 17.8943V15.1342C6.95644 14.4322 7.52542 13.8617 8.23038 13.857H10.8127C11.521 13.857 12.0952 14.4288 12.0952 15.1342V17.9028C12.095 18.4989 12.5728 18.986 13.1711 19H14.8927C16.6088 19 18 17.6146 18 15.9056V8.05405C17.9908 7.38174 17.6738 6.75041 17.1392 6.33973L11.2516 1.61677C10.2202 0.79441 8.75397 0.79441 7.72253 1.61677L1.86076 6.3483C1.32413 6.75732 1.00661 7.3897 1 8.06262V15.9056C1 17.6146 2.3912 19 4.10734 19H5.82886C6.44211 19 6.93924 18.5049 6.93924 17.8943" stroke="currentColor" stroke-width="1.5" stroke-linecap="round" stroke-linejoin="round"/>
</svg>