<svg xmlns="http://www.w3.org/2000/svg" width="current" height="current" viewBox="0 0 19 20" fill="none">
  <path d="M6.95646 17.8943V15.1342C6.95644 14.4322 7.52542 13.8617 8.23038 13.857H10.8127C11.521 13.857 12.0952 14.4288 12.0952 15.1342V17.9028C12.095 18.4989 12.5728 18.986 13.1711 19H14.8927C16.6088 19 18 17.6146 18 15.9056V8.05405C17.9908 7.38174 17.6738 6.75041 17.1392 6.33973L11.2516 1.61677C10.2202 0.79441 8.75397 0.79441 7.72253 1.61677L1.86076 6.3483C1.32413 6.75732 1.00661 7.3897 1 8.06262V15.9056C1 17.6146 2.3912 19 4.10734 19H5.82886C6.44211 19 6.93924 18.5049 6.93924 17.8943" stroke="currentColor" stroke-width="1.5" stroke-linecap="round" stroke-linejoin="round"/>
<path d="M6.63478 18.7733V15.7156C6.63478 14.9351 7.27217 14.3023 8.05844 14.3023H10.9326C11.3102 14.3023 11.6723 14.4512 11.9393 14.7162C12.2063 14.9813 12.3563 15.3408 12.3563 15.7156V18.7733C12.3539 19.0978 12.4821 19.4099 12.7124 19.6402C12.9427 19.8705 13.256 20 13.5829 20H15.5438C16.4596 20.0023 17.3388 19.6428 17.9872 19.0008C18.6356 18.3588 19 17.487 19 16.5778V7.86685C19 7.13246 18.6721 6.43584 18.1046 5.96467L11.434 0.675869C10.2737 -0.251438 8.61111 -0.221498 7.48539 0.746978L0.967012 5.96467C0.372741 6.42195 0.0175523 7.12063 0 7.86685V16.5689C0 18.4638 1.54738 20 3.45617 20H5.37229C6.05123 20 6.603 19.4562 6.60792 18.7822L6.63478 18.7733Z" fill="current"/>

</svg>