<svg xmlns="http://www.w3.org/2000/svg" width="current" height="current" viewBox="0 0 24 22" fill="none">
  <path d="M17.0402 11.5453C17.0402 8.61571 14.657 6.23254 11.7274 6.23254C8.79771 6.23254 6.41455 8.61571 6.41455 11.5453C6.41455 14.475 8.79771 16.8582 11.7274 16.8582C14.657 16.8582 17.0402 14.475 17.0402 11.5453ZM7.93248 11.5453C7.93248 9.45212 9.63562 7.75047 11.7274 7.75047C13.8191 7.75047 15.5223 9.45212 15.5223 11.5453C15.5223 13.6386 13.8191 15.3403 11.7274 15.3403C9.63562 15.3403 7.93248 13.6386 7.93248 11.5453Z" fill="currentColor"/>
  <path d="M22.3531 9.26781C21.9341 9.26781 21.5941 9.60785 21.5941 10.0268C21.5941 4.58644 17.1677 0.160156 11.7274 0.160156C6.28706 0.160156 1.8607 4.58644 1.8607 10.0268C1.8607 9.60785 1.52066 9.26781 1.10177 9.26781C0.682819 9.26781 0.342773 9.60785 0.342773 10.0268V13.0627C0.342773 13.4817 0.682819 13.8217 1.10177 13.8217C1.52066 13.8217 1.8607 13.4817 1.8607 13.0627V14.5807C1.8607 14.9996 2.20075 15.3396 2.6197 15.3396C3.03866 15.3396 3.37863 14.9996 3.37863 14.5807V10.0268C3.37863 5.42435 7.12347 1.67809 11.7274 1.67809C16.3313 1.67809 20.0761 5.42435 20.0761 10.0268V14.2665L14.4491 19.8935H11.7274C11.3085 19.8935 10.9684 20.2336 10.9684 20.6525C10.9684 21.0714 11.3085 21.4115 11.7274 21.4115H14.7633C14.862 21.4115 14.9607 21.3902 15.0532 21.3538C15.1463 21.3164 15.2305 21.26 15.3006 21.1883L21.3709 15.1196C21.4407 15.0482 21.4963 14.9642 21.5349 14.8721C21.5744 14.778 21.5941 14.6793 21.5941 14.5807V13.0627C21.5941 13.4817 21.9341 13.8217 22.3531 13.8217C22.772 13.8217 23.112 13.4817 23.112 13.0627V10.0268C23.112 9.60785 22.772 9.26781 22.3531 9.26781Z" fill="currentColor"/>
</svg>