<svg xmlns="http://www.w3.org/2000/svg" width="current" height="current" viewBox="0 0 17 20" fill="none">
  <path d="M13.5433 1.22144C13.1611 0.83337 12.7064 0.5256 12.2055 0.315941C11.7046 0.106282 11.1674 -0.00110049 10.625 8.50292e-06H3.54167C2.60236 8.50292e-06 1.70152 0.376283 1.03733 1.04606C0.373139 1.71583 0 2.62423 0 3.57144V16.4286C0 17.3758 0.373139 18.2842 1.03733 18.954C1.70152 19.6237 2.60236 20 3.54167 20H13.4583C14.3976 20 15.2985 19.6237 15.9627 18.954C16.6269 18.2842 17 17.3758 17 16.4286V6.42858C16.9975 5.32481 16.5621 4.26685 15.7888 3.48572L13.5433 1.22144ZM11.3333 1.52858C11.4113 1.54724 11.4872 1.57355 11.56 1.60715C11.6742 1.6438 11.7836 1.69416 11.8858 1.75715L12.0558 1.85715C12.2268 1.9603 12.3839 2.08513 12.5233 2.22858L14.7688 4.49286C14.8396 4.56429 14.9033 4.64286 14.9671 4.72144L15.0875 4.89286C15.1327 4.95381 15.1729 5.0183 15.2079 5.08572C15.2489 5.15173 15.2844 5.22101 15.3142 5.29286C15.3682 5.40244 15.4109 5.51733 15.4417 5.63572V5.71429H12.0417C11.8538 5.71429 11.6736 5.63904 11.5408 5.50508C11.408 5.37113 11.3333 5.18945 11.3333 5.00001V1.52144V1.52858ZM13.4583 18.5714H3.54167C2.97808 18.5714 2.43758 18.3457 2.03906 17.9438C1.64055 17.5419 1.41667 16.9969 1.41667 16.4286V3.57144C1.41667 3.00311 1.64055 2.45807 2.03906 2.05621C2.43758 1.65434 2.97808 1.42858 3.54167 1.42858H9.91667V5.00001C9.91667 5.56833 10.1405 6.11337 10.5391 6.51523C10.9376 6.9171 11.4781 7.14286 12.0417 7.14286H15.5833V16.4286C15.5833 16.9969 15.3595 17.5419 14.9609 17.9438C14.5624 18.3457 14.0219 18.5714 13.4583 18.5714Z" fill="currentColor"/>
<path fill-rule="evenodd" clip-rule="evenodd" d="M11.9715 0.209C11.8855 0.169678 11.7959 0.138877 11.704 0.11704V4.17999C11.704 4.40171 11.7921 4.61435 11.9488 4.77113C12.1056 4.92791 12.3183 5.01599 12.54 5.01599H16.5528V4.92403C16.5165 4.78547 16.4661 4.651 16.4023 4.52275C16.3672 4.43866 16.3252 4.35757 16.2769 4.28031C16.2356 4.20141 16.1881 4.12593 16.1348 4.05459L15.9927 3.85395L15.9926 3.85394C15.9174 3.76198 15.8422 3.67003 15.7586 3.58643L13.1085 0.936318C12.9439 0.768425 12.7584 0.622328 12.5567 0.501599L12.3561 0.384559C12.2354 0.310835 12.1063 0.251892 11.9715 0.209ZM2.508 20.064H14.212C14.8771 20.064 15.5151 19.7997 15.9854 19.3294C16.4557 18.8591 16.72 18.2211 16.72 17.556V6.68799H12.54C11.8748 6.68799 11.2369 6.42375 10.7666 5.95341C10.2962 5.48307 10.032 4.84516 10.032 4.17999V0H2.508C1.84283 0 1.20492 0.264235 0.734575 0.734575C0.264235 1.20492 0 1.84283 0 2.508V17.556C0 18.2211 0.264235 18.8591 0.734575 19.3294C1.20492 19.7997 1.84283 20.064 2.508 20.064Z" fill="current"/>

</svg>