<svg xmlns="http://www.w3.org/2000/svg" width="current" height="current" viewBox="0 0 25 24" fill="none">
  <path d="M8.71542 16.0147C7.52491 16.0164 6.34921 15.7507 5.27511 15.2372C5.14347 15.1699 4.99199 15.1523 4.84842 15.1876L2.84733 15.7432C2.65854 15.7956 2.45943 15.7985 2.26918 15.7517C2.07894 15.7048 1.90397 15.6097 1.76114 15.4756C1.6183 15.3415 1.51242 15.1728 1.45368 14.9859C1.39495 14.799 1.38534 14.6001 1.4258 14.4084L1.84906 12.3964C1.87561 12.2497 1.8474 12.0982 1.76977 11.9709C0.924141 10.4886 0.577935 8.77361 0.782342 7.07938C1.00053 5.31562 1.7977 3.67408 3.04895 2.41199C4.3002 1.1499 5.9348 0.3386 7.69662 0.105209C9.7944 -0.189805 11.9235 0.360603 13.6154 1.63535C15.3074 2.9101 16.4237 4.80477 16.7187 6.90255C17.0137 9.00033 16.4633 11.1294 15.1885 12.8213C13.9138 14.5133 12.0191 15.6296 9.92133 15.9246C9.52212 15.9843 9.11906 16.0144 8.71542 16.0147ZM4.98875 14.0279C5.25849 14.0292 5.52453 14.0908 5.7674 14.2081C6.72813 14.6662 7.78244 14.8939 8.84659 14.8732C9.91073 14.8525 10.9554 14.584 11.8976 14.0889C12.8398 13.5938 13.6535 12.8858 14.2742 12.0212C14.8949 11.1566 15.3054 10.1591 15.4732 9.10808C15.6409 8.05704 15.5612 6.98136 15.2405 5.96649C14.9198 4.95162 14.3668 4.02552 13.6255 3.26176C12.8842 2.498 11.975 1.91763 10.9702 1.56673C9.96535 1.21584 8.89253 1.1041 7.83695 1.24038C6.72263 1.38293 5.66058 1.79773 4.74462 2.44815C3.82867 3.09857 3.08701 3.96457 2.58518 4.96965C2.08334 5.97473 1.83678 7.08794 1.86728 8.21092C1.89778 9.3339 2.2044 10.4321 2.76005 11.4084C2.97541 11.7782 3.04804 12.2141 2.96427 12.6337L2.54214 14.6457L4.54267 14.0901C4.68781 14.0489 4.83789 14.0284 4.98875 14.0279Z" fill="currentColor"/>
  <path d="M17.2679 24.0026C16.8915 24.0025 16.5157 23.9743 16.1436 23.9181C14.5524 23.6788 13.0828 22.9265 11.9582 21.7756C10.8337 20.6247 10.1156 19.1381 9.91324 17.5418C9.81149 16.7306 9.84096 15.9084 10.0005 15.1066C10.0135 15.0316 10.0414 14.96 10.0825 14.896C10.1236 14.832 10.1771 14.7768 10.2399 14.7338C10.3026 14.6907 10.3733 14.6607 10.4478 14.6454C10.5224 14.6301 10.5992 14.6298 10.6738 14.6447C10.7484 14.6595 10.8193 14.6891 10.8823 14.7318C10.9453 14.7745 10.9992 14.8293 11.0407 14.893C11.0822 14.9568 11.1105 15.0282 11.124 15.1031C11.1374 15.178 11.1358 15.2548 11.1191 15.3291C10.9835 16.011 10.9587 16.7104 11.0456 17.4003C11.1734 18.3799 11.5308 19.3155 12.0888 20.1308C12.6467 20.9461 13.3893 21.6181 14.2562 22.092C15.123 22.5659 16.0896 22.8283 17.077 22.8579C18.0645 22.8874 19.045 22.6833 19.9387 22.2622C20.3177 22.0795 20.7497 22.039 21.156 22.1481L22.905 22.6335L22.5353 20.8783C22.4521 20.4593 22.5241 20.0245 22.7378 19.6547C23.3886 18.5035 23.6559 17.1751 23.5011 15.8618C23.3223 14.4051 22.6426 13.0558 21.5782 12.0452C20.5139 11.0345 19.1313 10.4255 17.6672 10.3223C17.1118 10.2862 16.5541 10.3246 16.0089 10.4364C15.9348 10.4534 15.858 10.4554 15.7831 10.4423C15.7082 10.4292 15.6366 10.4012 15.5726 10.3601C15.5087 10.3189 15.4536 10.2653 15.4106 10.2026C15.3677 10.1398 15.3377 10.0691 15.3225 9.99453C15.3073 9.92 15.3071 9.84318 15.322 9.76859C15.3369 9.694 15.3666 9.62314 15.4093 9.56019C15.452 9.49724 15.5069 9.44346 15.5707 9.40203C15.6345 9.36059 15.7059 9.33234 15.7808 9.31892C16.4249 9.18639 17.0839 9.14054 17.7402 9.18258C19.4705 9.30507 21.1044 10.0253 22.3621 11.22C23.6197 12.4147 24.4229 14.0095 24.634 15.7312C24.8175 17.2833 24.5013 18.8535 23.7315 20.2137C23.6545 20.3425 23.6261 20.4947 23.6517 20.6427L24.0219 22.3979C24.0623 22.5896 24.0526 22.7886 23.9938 22.9755C23.935 23.1624 23.829 23.331 23.6861 23.465C23.5432 23.5991 23.3682 23.6941 23.1779 23.7409C22.9877 23.7877 22.7886 23.7847 22.5998 23.7322L20.8502 23.2462C20.7072 23.212 20.5566 23.2295 20.4253 23.2958C19.438 23.7619 18.3597 24.0033 17.2679 24.0026Z" fill="currentColor"/>
  <path d="M20.1203 20.0061C20.0139 20.0067 19.9093 19.9774 19.8186 19.9217C19.7279 19.8659 19.6546 19.7859 19.607 19.6906L17.2682 15.0068L14.9294 19.6906C14.8617 19.826 14.7431 19.929 14.5995 19.977C14.456 20.0249 14.2992 20.0138 14.1638 19.9462C14.0284 19.8786 13.9254 19.7599 13.8775 19.6164C13.8296 19.4728 13.8407 19.3161 13.9083 19.1807L16.7605 13.4763C16.8132 13.3879 16.8879 13.3147 16.9774 13.2638C17.0669 13.213 17.1681 13.1863 17.271 13.1863C17.3739 13.1863 17.4751 13.213 17.5646 13.2638C17.6541 13.3147 17.7288 13.3879 17.7816 13.4763L20.6337 19.1807C20.6773 19.2679 20.6978 19.3648 20.6933 19.4622C20.6888 19.5596 20.6593 19.6542 20.6079 19.7369C20.5564 19.8197 20.4845 19.8879 20.3992 19.935C20.3138 19.9822 20.2178 20.0066 20.1203 20.0061Z" fill="currentColor"/>
  <path d="M15.2597 18.3831C15.1085 18.3845 14.9628 18.3258 14.8548 18.2198C14.7468 18.1138 14.6853 17.9693 14.6839 17.818C14.6825 17.6667 14.7412 17.5211 14.8471 17.4131C14.9531 17.3051 15.0976 17.2436 15.2489 17.2422L19.2665 17.168H19.2768C19.4281 17.1666 19.5737 17.2253 19.6817 17.3313C19.7897 17.4372 19.8512 17.5817 19.8526 17.733C19.8541 17.8843 19.7953 18.03 19.6894 18.138C19.5834 18.246 19.4389 18.3075 19.2876 18.3089L15.27 18.3831H15.2597ZM8.71169 11.4511C8.03476 11.4511 7.37303 11.2504 6.81018 10.8743C6.24733 10.4982 5.80865 9.96365 5.5496 9.33825C5.29055 8.71284 5.22277 8.02467 5.35483 7.36074C5.48689 6.69682 5.81287 6.08696 6.29153 5.6083C6.77019 5.12964 7.38005 4.80366 8.04397 4.6716C8.70789 4.53954 9.39607 4.60732 10.0215 4.86637C10.6469 5.12542 11.1814 5.56411 11.5575 6.12695C11.9336 6.6898 12.1343 7.35153 12.1343 8.02846C12.1334 8.93592 11.7725 9.80596 11.1309 10.4476C10.4892 11.0893 9.61915 11.4502 8.71169 11.4511ZM8.71169 5.74671C8.2604 5.74671 7.81925 5.88053 7.44402 6.13126C7.06879 6.38198 6.77633 6.73834 6.60363 7.15528C6.43093 7.57221 6.38574 8.03099 6.47378 8.47361C6.56182 8.91623 6.77914 9.3228 7.09825 9.64191C7.41736 9.96101 7.82393 10.1783 8.26654 10.2664C8.70916 10.3544 9.16794 10.3092 9.58488 10.1365C10.0018 9.96383 10.3582 9.67137 10.6089 9.29614C10.8596 8.9209 10.9934 8.47975 10.9934 8.02846C10.9934 7.42331 10.753 6.84293 10.3251 6.41502C9.89722 5.98711 9.31685 5.74671 8.71169 5.74671Z" fill="currentColor"/>
  <path d="M11.5639 12.0234C11.4127 12.0234 11.2676 11.9633 11.1606 11.8563L8.87888 9.57452C8.77497 9.46693 8.71747 9.32284 8.71877 9.17327C8.72007 9.0237 8.78006 8.88063 8.88583 8.77487C8.99159 8.6691 9.13466 8.60911 9.28423 8.60781C9.4338 8.60651 9.57789 8.66401 9.68548 8.76792L11.9672 11.0497C12.047 11.1294 12.1013 11.2311 12.1233 11.3417C12.1453 11.4524 12.134 11.567 12.0908 11.6712C12.0477 11.7755 11.9746 11.8645 11.8808 11.9272C11.787 11.9899 11.6767 12.0234 11.5639 12.0234Z" fill="#AAAAAA"/>
</svg>