<svg xmlns="http://www.w3.org/2000/svg" width="current" height="current" viewBox="0 0 17 20" fill="none">
  <path d="M8.49729 10.2945C11.2272 10.2945 13.4467 8.07382 13.4467 5.34514C13.4467 2.61647 11.2272 0.394531 8.49729 0.394531C5.76737 0.394531 3.54792 2.61523 3.54792 5.3439C3.54792 8.07258 5.76737 10.2945 8.49729 10.2945ZM8.49729 1.63653C10.5416 1.63653 12.2047 3.29957 12.2047 5.3439C12.2047 7.38823 10.5416 9.05127 8.49729 9.05127C6.45295 9.05127 4.78992 7.38823 4.78992 5.3439C4.78992 3.29957 6.45295 1.63653 8.49729 1.63653ZM10.5068 11.6309H6.48773C3.45973 11.6309 0.995605 14.4167 0.995605 17.8409C0.995605 18.9935 1.93332 19.9312 3.08589 19.9312H13.9099C15.0625 19.9312 16.0002 18.9935 16.0002 17.8409C15.999 14.4167 13.5348 11.6309 10.5068 11.6309ZM13.9087 18.6892H3.08465C2.61766 18.6892 2.23636 18.3091 2.23636 17.8409C2.23636 15.1011 4.14283 12.8729 6.48649 12.8729H10.5056C12.8493 12.8729 14.7557 15.1011 14.7557 17.8409C14.757 18.3091 14.3769 18.6892 13.9087 18.6892Z" fill="currentColor" stroke="currentColor" stroke-width="0.1"/>
<path fill-rule="evenodd" clip-rule="evenodd" d="M7.49938 10.3969C10.2285 10.3969 12.4472 8.17693 12.4472 5.44909C12.4472 2.72126 10.2285 0.5 7.49938 0.5C7.4492 0.5 7.39919 0.500751 7.34937 0.502241C7.30091 0.500751 7.25226 0.5 7.20344 0.5C4.62923 0.5 2.54242 2.58681 2.54242 5.16102C2.54242 5.25971 2.54549 5.35769 2.55153 5.45487C2.55533 8.1795 4.77264 10.3969 7.49938 10.3969ZM5.49044 11.7329C2.46337 11.7329 0 14.5179 0 17.941C0 19.0932 0.937423 20.0307 2.08964 20.0307H12.9104C14.0626 20.0307 15 19.0932 15 17.941C14.9988 14.5179 12.5354 11.7329 9.50832 11.7329H5.49044Z" fill="current"/>

</svg>