<svg width="current" height="current" viewBox="0 0 29 25" fill="none" xmlns="http://www.w3.org/2000/svg">
<path d="M28.1883 8.11456C28.0072 7.20916 27.3087 6.45767 26.3553 6.4104C25.3903 6.36247 24.4953 6.9915 24.1066 7.85534C23.6605 8.05674 21.873 8.90145 21.5012 9.07228C20.9731 7.8328 20.1588 6.73608 19.1251 5.87196C19.2819 5.63714 20.0206 4.49979 20.2055 4.22804C20.6574 4.12409 21.0552 3.85745 21.3231 3.47897C21.9776 2.54785 21.5293 1.34629 20.4762 0.9844C19.5468 0.664939 18.5785 1.20316 18.3844 2.1732C18.294 2.62568 18.3761 3.10058 18.61 3.50403C18.546 3.83405 18.2795 5.01405 18.2345 5.22204C16.8112 4.31849 15.1497 3.86236 13.4645 3.91254C13.4768 3.78678 13.5369 3.08365 13.5661 2.86863C13.8534 2.62946 14.0465 2.29607 14.1109 1.92783C14.2642 1.03563 13.5725 0.285455 12.677 0.327888C12.0801 0.354492 11.5341 0.731557 11.3969 1.32893C11.2602 1.92366 11.5357 2.55246 12.024 2.90336C12.0968 3.15093 12.3494 3.89165 12.3892 4.01214C11.0023 4.2341 9.69328 4.80029 8.58181 5.65891C8.44527 5.44344 7.76348 4.44197 7.60034 4.16318C7.7848 3.40223 7.50184 2.54499 6.84401 2.09889C6.19761 1.66048 5.35839 1.79064 4.78279 2.28753C4.21884 2.77453 3.966 3.56537 4.29382 4.25838C4.63021 4.96898 5.42369 5.37419 6.19563 5.31702C6.49575 5.53227 7.56758 6.23143 7.77007 6.36885C6.65118 7.48088 5.86425 8.88267 5.49757 10.417C5.33905 10.3497 4.50445 10.0065 4.26853 9.90073C4.00448 9.29764 3.37941 8.87155 2.7119 8.91244C2.06397 8.95224 1.57059 9.45595 1.429 10.0716C1.28653 10.6903 1.51629 11.3595 2.09233 11.6664C2.66133 11.9696 3.37897 11.8599 3.87036 11.4574C4.15025 11.4587 5.1326 11.4613 5.31596 11.462C5.0917 13.5168 5.63081 15.609 6.82642 17.296L4.26524 18.046C3.40095 17.6311 2.30384 17.7312 1.58532 18.389C0.863513 19.0499 0.807228 20.1066 1.26608 20.9368C1.72845 21.7736 2.65936 22.2911 3.61312 22.0398C4.58206 21.7846 5.27001 20.8774 5.35993 19.8964L7.44578 18.0728C8.61875 19.3759 10.1881 20.3126 11.9613 20.6905C11.9213 20.8536 11.7204 21.7153 11.6597 21.9429C11.1555 22.2731 10.8651 22.9021 10.9972 23.4986C11.1263 24.0812 11.6524 24.4638 12.2333 24.5071C12.8012 24.55 13.3669 24.2609 13.5784 23.7165C13.7972 23.1532 13.6074 22.4971 13.1719 22.0924C13.1383 21.8448 13.0349 20.9864 13.0175 20.8449C14.6755 20.9825 16.3509 20.6263 17.8055 19.8172C17.9473 20.0918 18.5887 21.3842 18.7806 21.745C18.5643 22.5873 18.8602 23.5417 19.5765 24.0562C20.2996 24.5755 21.2574 24.4376 21.9121 23.8724C22.544 23.3269 22.8274 22.4413 22.4534 21.6665C22.0704 20.8732 21.1758 20.4254 20.3117 20.4984C19.9918 20.2547 18.9415 19.3962 18.7254 19.2247C19.9066 18.3506 20.842 17.1863 21.4409 15.8445C21.5946 15.8986 22.3674 16.147 22.5532 16.2205C22.6935 16.5191 22.9331 16.7598 23.2311 16.9014C23.976 17.2521 24.7947 16.8192 24.9761 16.0312C25.0973 15.5048 24.9025 14.9336 24.4172 14.6656C23.9377 14.4007 23.3285 14.4818 22.9041 14.8149C22.6735 14.816 21.9205 14.8298 21.8178 14.8316C22.2785 13.2877 22.2926 11.6449 21.8582 10.0933C22.2265 10.0793 24.0072 9.95394 24.4603 9.95064C25.1412 10.6195 26.2067 10.8593 27.0881 10.4609C27.9878 10.0538 28.3761 9.0536 28.1883 8.11456ZM19.2471 2.34535C19.2911 2.12439 19.7361 1.51889 20.3458 1.80999C20.9768 2.11142 20.7165 2.77716 20.6033 2.97306C20.4617 3.21777 20.1824 3.3565 19.8951 3.39058C19.8334 3.39793 19.774 3.41824 19.7207 3.45018C19.6674 3.48212 19.6215 3.52498 19.586 3.57593C19.5435 3.63705 19.4993 3.70125 19.4543 3.76787C19.4734 3.67157 19.4912 3.57856 19.507 3.48952C19.5175 3.43138 19.516 3.37173 19.5029 3.31415C19.4897 3.25658 19.465 3.20226 19.4303 3.15445C19.2586 2.91722 19.192 2.62238 19.2471 2.34535ZM12.2603 1.78756C12.1739 1.44237 12.4081 1.20536 12.7478 1.20536C13.3777 1.20536 13.3667 1.97115 12.9239 2.24993C12.8649 2.28707 12.8156 2.33762 12.7799 2.39746C12.7397 2.32985 12.6822 2.27427 12.6132 2.23652C12.5267 2.18997 12.4507 2.12607 12.39 2.04882C12.3293 1.97157 12.2851 1.88263 12.2603 1.78756ZM6.57776 4.50661C6.53 4.47114 6.47555 4.44571 6.4177 4.43184C6.35985 4.41797 6.29979 4.41596 6.24115 4.42592C5.83198 4.49605 5.3773 4.33599 5.14513 3.98157C4.91339 3.62737 5.0541 3.21469 5.35774 2.95239C5.66972 2.68328 6.11341 2.60545 6.43792 2.89457C6.76156 3.18281 6.85302 3.66959 6.71077 4.06996C6.69006 4.12819 6.68188 4.19013 6.68677 4.25174C6.69166 4.31334 6.7095 4.37322 6.73914 4.42746C6.79938 4.53783 6.86402 4.64842 6.93152 4.75835C6.81206 4.67661 6.69412 4.59268 6.57776 4.50661ZM3.38424 10.7109C2.96628 11.1432 2.12355 10.9772 2.28647 10.2686C2.45202 9.54939 3.31916 9.74726 3.49791 10.3492C3.5254 10.442 3.58256 10.5223 3.65929 10.5786C3.55476 10.5885 3.45722 10.6354 3.38424 10.7109ZM4.64076 19.3562C4.59419 19.3968 4.55673 19.4469 4.53082 19.503C4.5049 19.5592 4.49112 19.6202 4.49038 19.682C4.48312 20.3071 4.10583 20.9264 3.50869 21.1507C2.90912 21.3758 2.33 21.043 2.03582 20.5109C1.75044 19.9942 1.76781 19.348 2.2603 18.9688C2.7561 18.5869 3.46757 18.5919 3.9981 18.8982C4.04963 18.9279 4.10664 18.9469 4.1657 18.954C4.22476 18.9611 4.28464 18.9562 4.34175 18.9395L5.50768 18.5981L4.64076 19.3562ZM12.7025 23.4944C12.6218 23.5905 12.4666 23.6417 12.2982 23.6296C11.6911 23.5841 11.7597 22.8518 12.2225 22.6326C12.2788 22.6057 12.3281 22.5679 12.3676 22.5218C12.3993 22.584 12.4457 22.6385 12.5035 22.6801C12.7344 22.8447 12.9129 23.2431 12.7025 23.4944ZM19.9263 21.3092C20.023 21.3809 20.1444 21.4099 20.2629 21.3899C20.7646 21.3039 21.3216 21.504 21.6017 21.9418C21.8809 22.3782 21.7076 22.8858 21.3365 23.2064C20.955 23.5355 20.4093 23.6283 20.0107 23.2792C19.6108 22.9287 19.4943 22.3364 19.6688 21.8441C19.6896 21.7859 19.6977 21.724 19.6928 21.6625C19.688 21.6009 19.6701 21.541 19.6405 21.4869C19.5222 21.2696 19.4052 21.0432 19.2902 20.815C19.4991 20.9827 19.7113 21.1494 19.9263 21.3092ZM23.3872 15.56C23.6616 15.2764 24.2286 15.3522 24.1182 15.8337C24.0052 16.3236 23.4349 16.1591 23.3173 15.7636C23.3052 15.7232 23.2875 15.6847 23.2645 15.6493C23.3098 15.6271 23.3516 15.5972 23.3872 15.56ZM13.7198 19.9966C9.54261 19.9966 6.14397 16.5848 6.14397 12.3909C6.14397 8.19723 9.54261 4.78539 13.7198 4.78539C17.897 4.78539 21.2956 8.19723 21.2956 12.3909C21.2956 16.5848 17.897 19.9966 13.7198 19.9966ZM27.0664 9.41769C26.5024 10.0282 25.4783 9.79827 24.9843 9.22465C24.9437 9.17757 24.8937 9.13961 24.8374 9.11327C24.7811 9.08693 24.7199 9.07281 24.6578 9.07184C24.6133 9.07118 23.8454 9.08767 23.4903 9.1101C23.8672 8.93146 24.246 8.75673 24.6265 8.58595C24.6807 8.56186 24.7294 8.52709 24.7697 8.48372C24.8101 8.44034 24.8412 8.38926 24.8614 8.33354C25.0599 7.78389 25.5623 7.34086 26.1563 7.29183C26.7777 7.24038 27.2101 7.71001 27.3256 8.28693C27.4131 8.7249 27.3163 9.1477 27.0664 9.41769Z" fill="currentColor" stroke="currentColor" stroke-width="0.5"/>
<path d="M9.98954 11.7227C9.63972 11.723 9.30431 11.8621 9.05691 12.1094C8.8095 12.3567 8.67033 12.6921 8.66992 13.0419C8.66992 13.7695 9.26179 14.3611 9.98954 14.3611C10.7173 14.3611 11.3092 13.7695 11.3092 13.0419C11.3088 12.6921 11.1697 12.3567 10.9222 12.1094C10.6748 11.862 10.3394 11.723 9.98954 11.7227ZM9.98954 13.4817C9.87293 13.4815 9.76113 13.4352 9.67866 13.3527C9.59618 13.2703 9.54977 13.1585 9.54959 13.0419C9.54959 12.7994 9.74703 12.6022 9.98954 12.6022C10.232 12.6022 10.4295 12.7994 10.4295 13.0419C10.4295 13.2844 10.232 13.4817 9.98954 13.4817ZM16.7519 12.2427C15.6741 12.2427 14.7971 13.1222 14.7971 14.203C14.7971 15.2839 15.6741 16.1631 16.7519 16.1631C17.8296 16.1631 18.7065 15.2836 18.7065 14.203C18.7065 13.1222 17.8296 12.2427 16.7519 12.2427ZM16.7519 15.2836C16.1591 15.2836 15.677 14.7989 15.677 14.203C15.677 13.6072 16.1591 13.1222 16.7519 13.1222C17.3444 13.1222 17.8268 13.607 17.8268 14.203C17.8266 14.7989 17.3444 15.2836 16.7519 15.2836ZM16.4922 8.23484C16.4922 7.34703 15.7717 6.625 14.8866 6.625C14.0014 6.625 13.2809 7.34725 13.2809 8.23484C13.2809 9.12243 14.0014 9.84468 14.8866 9.84468C15.7717 9.84468 16.4922 9.12265 16.4922 8.23484ZM14.1603 8.23484C14.1603 7.83205 14.486 7.50445 14.8863 7.50445C15.2867 7.50445 15.6123 7.83205 15.6123 8.23484C15.6123 8.63763 15.2867 8.96522 14.8863 8.96522C14.486 8.96522 14.1603 8.63763 14.1603 8.23484Z" fill="current" stroke="current" stroke-width="0.5"/>
</svg>
