<svg width="current" height="current" viewBox="0 0 21 25" fill="none" xmlns="http://www.w3.org/2000/svg">
<path d="M2.69515 14.7895L2.69516 14.7896C2.96913 17.8327 3.39396 20.1472 3.97335 21.7077C4.26291 22.4876 4.59716 23.0963 4.98433 23.5136C5.37593 23.9356 5.83024 24.1696 6.34223 24.1696C6.81298 24.1696 7.19892 24.0034 7.50953 23.7131C7.81358 23.4288 8.0367 23.0343 8.21025 22.5858C8.5534 21.699 8.73233 20.5181 8.91042 19.3427L8.91376 19.3206C9.07674 18.2454 9.2467 17.1294 9.5294 16.2814C9.67078 15.8574 9.83371 15.522 10.0224 15.2965C10.206 15.0772 10.4019 14.9743 10.627 14.9743C10.852 14.9743 11.0479 15.0772 11.2315 15.2965C11.4202 15.522 11.5831 15.8574 11.7245 16.2814C12.0072 17.1294 12.1772 18.2454 12.3402 19.3207L12.3435 19.3427C12.5216 20.5181 12.7005 21.699 13.0437 22.5858C13.2172 23.0343 13.4403 23.4288 13.7444 23.7131C14.055 24.0034 14.4409 24.1696 14.9117 24.1696C15.4237 24.1696 15.8781 23.9356 16.2697 23.5136C16.6569 23.0963 16.9912 22.4876 17.2807 21.7077C17.8601 20.1472 18.2848 17.8327 18.5585 14.7896C18.6381 13.9064 18.9206 13.001 19.4317 12.0186L19.4317 12.0185C20.0513 10.8268 20.377 9.44645 20.377 8.02687C20.377 4.02613 17.7782 0.669556 14.4714 0.669556C13.9446 0.669556 13.4223 0.756111 12.9193 0.926447V0.926447C11.4412 1.42659 9.81239 1.42617 8.33453 0.926432C7.83154 0.756104 7.30928 0.669556 6.78229 0.669556C3.47568 0.669556 0.876953 4.02614 0.876953 8.02687C0.876953 9.44689 1.20264 10.8273 1.82221 12.0185C2.33333 13.0013 2.61583 13.9066 2.69515 14.7895ZM17.1421 14.6625L17.1421 14.6626C16.867 17.7218 16.4493 19.778 16.0076 21.0623C15.7863 21.7057 15.5635 22.1422 15.3591 22.4127C15.149 22.6906 14.9934 22.7495 14.9117 22.7495C14.8233 22.7495 14.7147 22.6989 14.5865 22.5107C14.4587 22.3229 14.3424 22.0402 14.2372 21.6799C14.0275 20.9618 13.8838 20.0168 13.7462 19.1083L13.7462 19.1082L13.7432 19.0885C13.5556 17.8508 13.3496 16.4921 12.9258 15.4425C12.4987 14.3845 11.8114 13.5543 10.627 13.5543C9.44251 13.5543 8.7552 14.3845 8.32807 15.4425C7.9043 16.4921 7.69835 17.8508 7.51074 19.0885L7.50775 19.1082L7.50775 19.1083C7.37009 20.0168 7.22638 20.9618 7.01668 21.6799C6.9115 22.0402 6.79524 22.3229 6.66738 22.5107C6.53923 22.6989 6.43062 22.7495 6.34223 22.7495C6.26057 22.7495 6.10504 22.6906 5.89498 22.4127C5.69055 22.1422 5.46772 21.7057 5.24646 21.0623C4.80475 19.778 4.38692 17.7218 4.11156 14.6626C4.01425 13.5811 3.67558 12.5009 3.08423 11.3642C2.57196 10.3793 2.29896 9.22524 2.29896 8.02687C2.29896 6.37129 2.81446 4.87895 3.63543 3.80577C4.45631 2.73272 5.57174 2.08956 6.78229 2.08956C7.15311 2.08956 7.52175 2.15058 7.87802 2.27111C9.65111 2.87135 11.6028 2.87135 13.3759 2.27111C13.7322 2.15058 14.1006 2.08956 14.4714 2.08956C15.6819 2.08956 16.7974 2.73272 17.6184 3.80578C18.4394 4.87896 18.9549 6.3713 18.9549 8.02687C18.9549 9.22477 18.682 10.3788 18.1697 11.3642C17.5786 12.5009 17.2397 13.5808 17.1421 14.6625Z" fill="currentColor" stroke="currentColor" stroke-width="0.5"/>
</svg>
