<svg width="current" height="current" viewBox="0 0 28 26" fill="none" xmlns="http://www.w3.org/2000/svg">
<path d="M13.8867 0.759766C6.71245 0.759766 0.886719 6.36143 0.886719 13.2598C0.886719 20.1581 6.71245 25.7598 13.8867 25.7598C21.061 25.7598 26.8867 20.1581 26.8867 13.2598C26.8867 6.36143 21.061 0.759766 13.8867 0.759766ZM13.8867 1.5931C20.593 1.5931 26.0201 6.81143 26.0201 13.2598C26.0201 19.7081 20.593 24.9264 13.8867 24.9264C7.18045 24.9264 1.75339 19.7081 1.75339 13.2598C1.75339 6.81143 7.18045 1.5931 13.8867 1.5931ZM13.8867 3.25977C8.14852 3.25977 3.48672 7.74227 3.48672 13.2598C3.48672 18.7781 8.14852 23.2598 13.8867 23.2598C19.6249 23.2598 24.2867 18.7781 24.2867 13.2598C24.2867 7.74227 19.6249 3.25977 13.8867 3.25977ZM13.8867 4.0931C18.5641 4.0931 22.4407 7.32393 23.2554 11.5931H20.6155C19.5019 9.99727 16.8438 9.0931 13.8763 9.0931C13.8757 9.0931 13.8752 9.0931 13.8746 9.0931C10.9175 9.0931 8.27592 10.0031 7.16832 11.5931H4.51719C5.33272 7.32393 9.20932 4.0931 13.8867 4.0931ZM13.8763 9.92643C16.7138 9.92643 19.1673 10.9289 19.9499 12.1381L19.9482 15.0131C18.8575 15.1087 17.8362 15.5686 17.0616 16.3131C16.2871 17.0576 15.8083 18.0394 15.7085 19.0881H12.065C11.9655 18.0396 11.4871 17.0577 10.7128 16.3132C9.93857 15.5688 8.91744 15.1087 7.82699 15.0131L7.82352 12.1531C8.59312 10.9431 11.0389 9.92977 13.8763 9.92643ZM4.39759 12.4264H6.95685L6.95859 14.0931H4.39672C4.37072 13.8181 4.35339 13.5414 4.35339 13.2598C4.35339 12.9789 4.37245 12.7014 4.39759 12.4264ZM13.8867 12.4264C12.9343 12.4264 12.1534 13.1773 12.1534 14.0931C12.1534 15.0089 12.9343 15.7598 13.8867 15.7598C14.8392 15.7598 15.6201 15.0089 15.6201 14.0931C15.6201 13.1773 14.8392 12.4264 13.8867 12.4264ZM20.8166 12.4264H23.3759C23.4019 12.7014 23.4201 12.9789 23.4201 13.2598C23.4201 13.5414 23.4019 13.8181 23.3767 14.0931H20.8149L20.8166 12.4264ZM13.8867 13.2598C14.3703 13.2598 14.7534 13.6281 14.7534 14.0931C14.7534 14.5581 14.3703 14.9264 13.8867 14.9264C13.4031 14.9264 13.0201 14.5581 13.0201 14.0931C13.0201 13.6281 13.4031 13.2598 13.8867 13.2598ZM4.51805 14.9264H6.96032V15.3448C6.96032 15.4553 7.00597 15.5613 7.08724 15.6394C7.16851 15.7175 7.27873 15.7614 7.39365 15.7614C7.90515 15.7606 8.4118 15.8568 8.88454 16.0446C9.35729 16.2324 9.78682 16.5081 10.1485 16.8559C10.5102 17.2036 10.7969 17.6167 10.9922 18.0712C11.1876 18.5258 11.2876 19.0129 11.2867 19.5048C11.2867 19.6153 11.3324 19.7213 11.4136 19.7994C11.4949 19.8775 11.6051 19.9214 11.7201 19.9214H12.1534V22.2673C10.2574 21.9308 8.51238 21.0488 7.14901 19.738C5.78565 18.4273 4.86822 16.7494 4.51805 14.9264ZM20.8149 14.9264H23.2563C22.906 16.7495 21.9885 18.4275 20.6249 19.7382C19.2614 21.049 17.5162 21.9309 15.6201 22.2673V19.9214H16.0534C16.1683 19.9214 16.2785 19.8775 16.3598 19.7994C16.4411 19.7213 16.4867 19.6153 16.4867 19.5048C16.486 19.0129 16.5863 18.5257 16.7818 18.0711C16.9773 17.6165 17.2642 17.2035 17.6261 16.8558C17.9879 16.508 18.4175 16.2323 18.8904 16.0446C19.3632 15.8568 19.8699 15.7606 20.3815 15.7614C20.4964 15.7614 20.6067 15.7175 20.6879 15.6394C20.7692 15.5613 20.8149 15.4553 20.8149 15.3448V14.9264ZM13.0201 19.9214H14.7534V22.3823C14.4674 22.4073 14.1797 22.4264 13.8867 22.4264C13.5938 22.4264 13.3061 22.4073 13.0201 22.3823V19.9214Z" fill="currentColor" stroke="currentColor" stroke-width="0.5"/>
</svg>
