<svg width="current" height="current" viewBox="0 0 29 25" fill="none" xmlns="http://www.w3.org/2000/svg">
<path d="M17.2584 11.7647H15.2328V9.79897C15.2328 9.43712 14.9305 9.14373 14.5576 9.14373C14.1847 9.14373 13.8824 9.43712 13.8824 9.79897V11.7647H11.8568C11.484 11.7647 11.1816 12.0581 11.1816 12.4199C11.1816 12.7818 11.484 13.0752 11.8568 13.0752H13.8824V15.0416C13.8827 15.4033 14.1849 15.6964 14.5576 15.6961C14.9302 15.6959 15.2331 15.4026 15.2328 15.0409V13.0752H17.2584C17.6313 13.0752 17.9336 12.7818 17.9336 12.4199C17.9336 12.0581 17.6313 11.7647 17.2584 11.7647ZM25.6641 3.25553C22.6476 0.315749 17.8065 0.127784 14.5576 2.82425C11.3086 0.127304 6.46695 0.315909 3.45114 3.25681C0.259776 6.37648 0.259776 11.4105 3.45114 14.5303L12.0639 22.9153C12.7233 23.5602 13.6214 23.9221 14.5576 23.9199C15.4945 23.9219 16.3931 23.5597 17.0527 22.914L25.6641 14.529C28.8555 11.4093 28.8555 6.37528 25.6641 3.25553ZM24.7068 13.605L16.0967 21.9887C15.2371 22.7889 13.8804 22.7895 13.02 21.99L4.40855 13.605C1.74073 10.9965 1.74073 6.78801 4.40855 4.17952C5.68633 2.92807 7.42774 2.22604 9.24307 2.23044C11.0589 2.22572 12.8008 2.92783 14.079 4.17944C14.3469 4.4278 14.7685 4.4278 15.0364 4.17944C16.3142 2.92807 18.0556 2.22596 19.8709 2.23044C21.6865 2.22644 23.4291 2.92895 24.7068 4.1808C27.3759 6.78825 27.3759 10.9975 24.7068 13.605Z" fill="currentColor" stroke="currentColor" stroke-width="0.5"/>
</svg>
