<svg width="current" height="current" viewBox="0 0 27 23" fill="none" xmlns="http://www.w3.org/2000/svg">
<path d="M18.0855 15.6011L13.8068 20.0476C13.104 20.7474 11.9936 20.748 11.29 20.049L3.9737 12.4444C1.73234 10.1073 1.73234 6.33351 3.9737 3.9964C5.04688 2.87398 6.50964 2.24437 8.03446 2.24867C9.55888 2.24445 11.0213 2.87398 12.094 3.9964C12.3483 4.24811 12.7487 4.24811 13.003 3.9964C13.7794 3.18781 14.7643 2.62835 15.8397 2.38507C18.928 1.68653 21.978 3.71435 22.6522 6.91446C22.6531 6.919 22.6541 6.92363 22.6551 6.92817C22.7354 7.28182 23.0772 7.50109 23.4185 7.41789C23.7639 7.33704 23.9812 6.98193 23.9043 6.62382C23.2031 3.29113 20.3543 0.916142 17.0625 0.919953C15.4104 0.914925 13.8093 1.5198 12.5485 2.62616C11.2877 1.5198 9.68786 0.914925 8.03579 0.919953H8.03446C6.16827 0.915087 4.37807 1.68572 3.06464 3.05952C0.327413 5.91596 0.327413 10.526 3.06464 13.3824L10.381 20.987C10.9542 21.5856 11.7347 21.9215 12.5485 21.9199C13.3626 21.9216 14.1433 21.5852 14.716 20.9857L18.9946 16.5379C19.2443 16.2778 19.2431 15.8572 18.9921 15.5985C18.7411 15.3398 18.3351 15.341 18.0855 15.6011ZM25.3706 9.97647H22.1651C21.9951 9.97647 21.832 10.0465 21.7118 10.1711L19.632 12.3262L15.5951 7.54626C15.4785 7.40759 15.3116 7.32528 15.1342 7.3192C14.9591 7.32544 14.7915 7.39421 14.6596 7.51382L12.2831 9.97647H9.98407C9.63002 9.97647 9.34297 10.2739 9.34297 10.6408C9.34297 11.0077 9.63002 11.3051 9.98407 11.3051H12.5485C12.7186 11.3051 12.8816 11.2351 13.0018 11.1105L15.0816 8.95534L19.1186 13.7353C19.2351 13.874 19.402 13.9563 19.5794 13.9624H19.6007C19.7707 13.9624 19.9337 13.8924 20.0539 13.7678L22.4305 11.3051H25.3706C25.7247 11.3051 26.0117 11.0077 26.0117 10.6408C26.0117 10.2739 25.7247 9.97647 25.3706 9.97647Z" fill="currentColor" stroke="currentColor" stroke-width="0.5"/>
</svg>
