<svg width="current" height="current" viewBox="0 0 27 27" fill="none" xmlns="http://www.w3.org/2000/svg">
<path d="M23.2611 18.178V16.8048C23.2611 14.1943 21.1444 12.0788 18.534 12.0788H8.48871V9.71398H17.9429V7.35024H8.48871V4.98651C8.48871 2.37602 6.37174 0.259399 3.76124 0.259399H0.21582V2.62313H3.76124V2.62207C5.0656 2.62207 6.12391 3.68286 6.12391 4.98687H6.12498V12.1841C2.77242 12.7485 0.21582 15.6568 0.21582 19.1686C0.21582 23.0845 3.38968 26.2594 7.30666 26.2594C10.8188 26.2594 13.7271 23.7021 14.2915 20.3506H18.3563C18.0986 20.8895 17.9429 21.4862 17.9429 22.1233C17.9429 24.4069 19.7944 26.2594 22.0794 26.2594C24.3644 26.2594 26.2158 24.4066 26.2158 22.123C26.2158 20.252 24.9661 18.6896 23.2611 18.178ZM7.30666 23.8957C4.69617 23.8957 2.57955 21.7787 2.57955 19.1682C2.57955 16.5577 4.69617 14.4414 7.30666 14.4414C9.91716 14.4414 12.0341 16.5577 12.0341 19.1682C12.0341 21.7787 9.91716 23.8957 7.30666 23.8957ZM14.2915 17.9869C14.0639 16.6364 13.4569 15.4179 12.5812 14.4414H18.534C19.8383 14.4414 20.8977 15.5008 20.8977 16.8048V17.9869H14.2915ZM22.0794 23.8957C21.1005 23.8957 20.3067 23.1015 20.3067 22.123C20.3067 21.1444 21.1005 20.3502 22.0794 20.3502C23.0583 20.3502 23.8521 21.1444 23.8521 22.123C23.8521 23.1015 23.0583 23.8957 22.0794 23.8957Z" fill="currentColor"/>
</svg>
