<svg width="current" height="current" viewBox="0 0 25 23" fill="none" xmlns="http://www.w3.org/2000/svg">
<path d="M12.1602 0.259766C6.38048 0.259766 0.160156 1.48902 0.160156 4.18834V18.3312C0.160156 21.0305 6.38048 22.2598 12.1602 22.2598C17.9398 22.2598 24.1602 21.0305 24.1602 18.3312V4.18834C24.1602 1.48902 17.9398 0.259766 12.1602 0.259766ZM22.5602 13.6169C22.5602 14.3217 19.0218 15.9741 12.1602 15.9741C5.29848 15.9741 1.76016 14.3217 1.76016 13.6169V10.9977C3.9804 12.246 8.17424 12.8312 12.1602 12.8312C16.1461 12.8312 20.3399 12.246 22.5602 10.9977V13.6169ZM22.5602 8.90262C22.5602 9.60741 19.0218 11.2598 12.1602 11.2598C5.29848 11.2598 1.76016 9.60741 1.76016 8.90262V6.28344C3.9804 7.53171 8.17424 8.11691 12.1602 8.11691C16.1461 8.11691 20.3399 7.53171 22.5602 6.28344V8.90262ZM12.1602 1.83119C19.0218 1.83119 22.5602 3.48355 22.5602 4.18834C22.5602 4.89312 19.0218 6.54548 12.1602 6.54548C5.29848 6.54548 1.76016 4.89312 1.76016 4.18834C1.76016 3.48355 5.29848 1.83119 12.1602 1.83119ZM12.1602 20.6883C5.29848 20.6883 1.76016 19.036 1.76016 18.3312V15.712C3.9804 16.9603 8.17424 17.5455 12.1602 17.5455C16.1461 17.5455 20.3399 16.9603 22.5602 15.712V18.3312C22.5602 19.036 19.0218 20.6883 12.1602 20.6883Z" fill="currentColor"/>
</svg>
