<svg  width="current" height="current" viewBox="0 0 25 24" fill="none" xmlns="http://www.w3.org/2000/svg">
<path fill-rule="evenodd" clip-rule="evenodd" d="M13.247 23.7594C13.887 23.7604 14.1791 23.7597 14.5432 23.755C16.4762 23.7293 17.7948 23.5798 18.8723 23.1698C20.3449 22.6101 21.1715 21.5704 21.1715 20.0386C21.1715 16.4236 17.2987 13.2741 12.8554 13.2741C8.41209 13.2741 4.53932 16.4236 4.53932 20.0386C4.53932 21.57 5.36587 22.6097 6.8389 23.1702C7.91601 23.5798 9.23466 23.7293 11.1676 23.755C11.5317 23.7597 11.8239 23.7604 12.4638 23.7594C12.7249 23.7589 12.9859 23.7589 13.247 23.7594ZM12.4617 22.4065C11.8293 22.4075 11.5422 22.4068 11.1882 22.4021C7.52046 22.3537 5.9856 21.7696 5.9856 20.0386C5.9856 17.2161 9.16957 14.627 12.8554 14.627C16.5412 14.627 19.7252 17.2161 19.7252 20.0386C19.7252 21.7699 18.1904 22.3537 14.5226 22.4021C14.1686 22.4068 13.8815 22.4075 13.2492 22.4065C12.9867 22.406 12.7242 22.406 12.4617 22.4065ZM16.4711 5.49491C16.4711 2.92406 14.9286 0.759766 12.8554 0.759766C10.7822 0.759766 9.23972 2.92406 9.23972 5.49491C9.23972 8.06575 10.7822 10.23 12.8554 10.23C14.9286 10.23 16.4711 8.06575 16.4711 5.49491ZM10.686 5.49491C10.686 3.58292 11.7338 2.11266 12.8554 2.11266C13.977 2.11266 15.0248 3.58292 15.0248 5.49491C15.0248 7.40689 13.977 8.87715 12.8554 8.87715C11.7338 8.87715 10.686 7.40689 10.686 5.49491ZM23.9896 10.7374C25.2626 8.67455 25.1527 6.28838 23.5217 5.40764C21.891 4.52657 19.6265 5.63087 18.3534 7.69336C17.0803 9.75619 17.1903 12.1424 18.8213 13.0231C20.452 13.9042 22.7165 12.7999 23.9896 10.7374ZM19.6059 8.36981C20.5293 6.87351 22.0085 6.15241 22.7986 6.57925C23.5886 7.00575 23.6605 8.56463 22.7371 10.0609C21.8136 11.5572 20.3345 12.2783 19.5444 11.8515C18.7544 11.425 18.6825 9.86612 19.6059 8.36981ZM2.97373 10.0609C2.05028 8.56463 2.12223 7.00575 2.91226 6.57925C3.70229 6.15241 5.18147 6.87351 6.10491 8.36981C7.02836 9.86612 6.95641 11.425 6.16638 11.8515C5.37635 12.2783 3.89717 11.5572 2.97373 10.0609ZM7.35739 7.69336C6.08467 5.63053 3.82016 4.52657 2.18912 5.40764C0.558447 6.28838 0.448168 8.67489 1.72125 10.7374C2.99398 12.8002 5.25848 13.9042 6.88952 13.0231C8.5202 12.1424 8.63047 9.75586 7.35739 7.69336Z" fill="currentColor"/>
</svg>
