<svg  width="current" height="current" viewBox="0 0 29 23" fill="none" xmlns="http://www.w3.org/2000/svg">
<path d="M28.1663 11.3764H26.4624C26.3772 10.1836 26.0364 9.07607 25.6104 8.1389C26.8032 6.00898 26.4624 3.02708 26.4624 2.85669L26.3772 2.00472L25.5252 2.08992C25.44 2.08992 23.9065 2.26031 22.373 2.94189C20.0726 1.23795 17.4315 0.300781 14.7904 0.300781C8.40065 0.300781 3.62962 4.47543 2.77765 10.5244H1.75529C1.24411 10.5244 0.90332 10.8652 0.90332 11.3764C0.90332 11.8876 1.24411 12.2284 1.75529 12.2284H2.60726C2.60726 12.3136 2.60726 12.3987 2.60726 12.4839C2.60726 14.1027 2.86285 15.8918 3.37403 17.4254C3.88521 18.9589 5.33356 19.9813 7.0375 19.9813H7.71908V20.0665C7.71908 21.4296 8.91183 22.5372 10.275 22.5372C10.9566 22.5372 11.5529 22.2816 12.0641 21.7704C12.5753 21.2592 12.8309 20.6629 12.8309 19.9813H16.2388C16.2388 21.3444 17.4315 22.5372 18.7947 22.5372C20.1578 22.5372 21.3506 21.4296 21.3506 20.0665V19.8961H22.2026C24.0769 19.8961 26.0364 18.9589 26.3772 16.4882H28.1663V11.3764ZM24.7585 14.7843V15.6362C24.7585 17.7662 23.3953 18.1921 22.2026 18.1921H19.6467V19.9813C19.6467 20.4073 19.2207 20.7481 18.7947 20.7481C18.3687 20.7481 17.9427 20.3221 17.9427 19.8961V18.1921H11.127V19.8961C11.127 20.0665 11.0418 20.3221 10.8714 20.4925C10.701 20.6629 10.5306 20.7481 10.275 20.7481C9.849 20.7481 9.42302 20.4073 9.42302 19.9813V18.1921H7.0375C6.10033 18.1921 5.33356 17.5958 4.99277 16.829C4.56679 15.4658 4.3112 13.9323 4.3112 12.4839C4.3112 6.43496 8.74144 2.00472 14.7904 2.00472C16.8351 2.00472 18.9651 2.6863 20.7542 3.96425C20.669 4.04945 20.5838 4.13464 20.4986 4.21984C19.7318 4.98661 19.3059 5.75339 19.1355 6.52016L20.8394 6.86095C20.9246 6.43496 21.1802 6.00898 21.6914 5.4978C22.5433 4.64583 23.9065 4.21984 24.7585 4.04945C24.7585 5.15701 24.5881 6.69055 23.8213 7.71292L23.4805 8.2241L23.8213 8.73528C24.2473 9.41686 24.7585 10.6948 24.7585 12.3136V13.1655H26.4624V14.8695H24.7585V14.7843Z" fill="currentColor"/>
<path d="M22.2026 10.5243C22.6731 10.5243 23.0545 10.1428 23.0545 9.67228C23.0545 9.20175 22.6731 8.82031 22.2026 8.82031C21.732 8.82031 21.3506 9.20175 21.3506 9.67228C21.3506 10.1428 21.732 10.5243 22.2026 10.5243Z" fill="currentColor"/>
<path d="M18.9649 3.79398C16.1534 2.17524 12.8307 2.26043 10.1044 4.04957C9.67845 4.30516 9.59326 4.81634 9.84885 5.24233C10.0192 5.49792 10.2748 5.66831 10.5304 5.66831C10.7008 5.66831 10.8712 5.58312 10.9564 5.49792C13.2567 4.04957 15.8126 3.96437 18.113 5.32752C18.5389 5.58311 19.0501 5.41272 19.3057 4.98674C19.5613 4.56075 19.3909 4.04957 18.9649 3.79398Z" fill="currentColor"/>
</svg>
