<svg width="current" height="current" viewBox="0 0 359 332" fill="none" xmlns="http://www.w3.org/2000/svg">
<path d="M-1.5 1.5H287.495C298.244 1.5 308.739 4.76712 317.589 10.8682V10.8682C344.86 29.6683 348.408 68.592 324.987 92.0134L320.929 96.0706C310.09 106.91 295.388 113 280.058 113H131.761C118.358 113 105.392 117.764 95.1784 126.442V126.442C68.622 149.005 68.622 189.995 95.1784 212.558V212.558C105.392 221.236 118.358 226 131.761 226H303.687C320.83 226 336.919 234.271 346.894 248.211L347.68 249.309C360.916 267.806 360.4 292.808 346.411 310.742V310.742C336.686 323.211 321.756 330.5 305.943 330.5H-1.5" stroke="#B6BFFF" stroke-width="1.5" stroke-dasharray="11 21"/>
</svg>
